<svg width="52" height="15" viewBox="0 0 52 15" fill="none" xmlns="http://www.w3.org/2000/svg">
<g clip-path="url(#clip0_0_795)">
<path d="M12.4066 12V10.6705L15.5131 7.79403C15.7773 7.53835 15.9989 7.30824 16.1779 7.10369C16.3597 6.89915 16.4975 6.69886 16.5913 6.50284C16.685 6.30398 16.7319 6.08949 16.7319 5.85938C16.7319 5.60369 16.6737 5.38352 16.5572 5.19886C16.4407 5.01136 16.2816 4.8679 16.0799 4.76847C15.8782 4.66619 15.6495 4.61506 15.3938 4.61506C15.1268 4.61506 14.8938 4.66903 14.695 4.77699C14.4961 4.88494 14.3427 5.03977 14.2347 5.24148C14.1268 5.44318 14.0728 5.68324 14.0728 5.96165H12.3214C12.3214 5.39062 12.4506 4.89489 12.7092 4.47443C12.9677 4.05398 13.3299 3.72869 13.7958 3.49858C14.2617 3.26847 14.7987 3.15341 15.4066 3.15341C16.0316 3.15341 16.5756 3.2642 17.0387 3.4858C17.5046 3.70455 17.8668 4.00852 18.1254 4.39773C18.3839 4.78693 18.5131 5.23295 18.5131 5.7358C18.5131 6.06534 18.4478 6.39062 18.3171 6.71165C18.1893 7.03267 17.9606 7.3892 17.631 7.78125C17.3015 8.17045 16.837 8.63778 16.2376 9.18324L14.9634 10.4318V10.4915H18.6282V12H12.4066ZM19.9652 12V10.6705L23.0717 7.79403C23.3359 7.53835 23.5575 7.30824 23.7365 7.10369C23.9183 6.89915 24.0561 6.69886 24.1499 6.50284C24.2436 6.30398 24.2905 6.08949 24.2905 5.85938C24.2905 5.60369 24.2322 5.38352 24.1158 5.19886C23.9993 5.01136 23.8402 4.8679 23.6385 4.76847C23.4368 4.66619 23.2081 4.61506 22.9524 4.61506C22.6854 4.61506 22.4524 4.66903 22.2536 4.77699C22.0547 4.88494 21.9013 5.03977 21.7933 5.24148C21.6854 5.44318 21.6314 5.68324 21.6314 5.96165H19.88C19.88 5.39062 20.0092 4.89489 20.2678 4.47443C20.5263 4.05398 20.8885 3.72869 21.3544 3.49858C21.8203 3.26847 22.3572 3.15341 22.9652 3.15341C23.5902 3.15341 24.1342 3.2642 24.5973 3.4858C25.0632 3.70455 25.4254 4.00852 25.6839 4.39773C25.9425 4.78693 26.0717 5.23295 26.0717 5.7358C26.0717 6.06534 26.0064 6.39062 25.8757 6.71165C25.7479 7.03267 25.5192 7.3892 25.1896 7.78125C24.8601 8.17045 24.3956 8.63778 23.7962 9.18324L22.522 10.4318V10.4915H26.1868V12H19.9652ZM30.7113 12.1193C30.109 12.1193 29.5721 12.0085 29.1005 11.7869C28.6317 11.5653 28.2596 11.2599 27.984 10.8707C27.7085 10.4815 27.565 10.0355 27.5536 9.53267H29.3434C29.3633 9.87074 29.5053 10.1449 29.7695 10.3551C30.0337 10.5653 30.3477 10.6705 30.7113 10.6705C31.0011 10.6705 31.2567 10.6065 31.4783 10.4787C31.7028 10.348 31.8775 10.1676 32.0025 9.9375C32.1303 9.70455 32.1942 9.4375 32.1942 9.13636C32.1942 8.82955 32.1289 8.55966 31.9982 8.3267C31.8704 8.09375 31.6928 7.91193 31.4656 7.78125C31.2383 7.65057 30.9783 7.58381 30.6857 7.58097C30.43 7.58097 30.1815 7.63352 29.94 7.73864C29.7013 7.84375 29.5153 7.98722 29.3817 8.16903L27.7411 7.875L28.1545 3.27273H33.4897V4.78125H29.6758L29.4499 6.96733H29.5011C29.6545 6.75142 29.886 6.57244 30.1957 6.4304C30.5053 6.28835 30.8519 6.21733 31.2354 6.21733C31.761 6.21733 32.2298 6.34091 32.6417 6.58807C33.0536 6.83523 33.3789 7.17472 33.6175 7.60653C33.8562 8.03551 33.9741 8.52983 33.9712 9.08949C33.9741 9.67756 33.8377 10.2003 33.5621 10.6577C33.2894 11.1122 32.9073 11.4702 32.4158 11.7315C31.9272 11.9901 31.359 12.1193 30.7113 12.1193ZM35.6033 12L39.2212 4.84091V4.78125H35.0067V3.27273H41.1303V4.80256L37.5082 12H35.6033ZM47.1719 10.3636V9.90341C47.1747 9.55398 47.25 9.23295 47.3977 8.94034C47.5483 8.64489 47.7656 8.40909 48.0497 8.23295C48.3338 8.05398 48.6818 7.96449 49.0938 7.96449C49.5114 7.96449 49.8622 8.05256 50.1463 8.22869C50.4332 8.40483 50.6491 8.64062 50.794 8.93608C50.9418 9.22869 51.0156 9.55114 51.0156 9.90341V10.3636C51.0156 10.7131 50.9418 11.0355 50.794 11.331C50.6463 11.6236 50.429 11.858 50.142 12.0341C49.8551 12.2131 49.5057 12.3026 49.0938 12.3026C48.6761 12.3026 48.3253 12.2131 48.0412 12.0341C47.7571 11.858 47.5412 11.6236 47.3935 11.331C47.2486 11.0355 47.1747 10.7131 47.1719 10.3636ZM48.4119 9.90341V10.3636C48.4148 10.5653 48.4645 10.7557 48.5611 10.9347C48.6577 11.1136 48.8352 11.2031 49.0938 11.2031C49.3523 11.2031 49.5298 11.1151 49.6264 10.9389C49.723 10.7628 49.7699 10.571 49.767 10.3636V9.90341C49.7699 9.69602 49.7244 9.50284 49.6307 9.32386C49.5398 9.14489 49.3608 9.0554 49.0938 9.0554C48.8381 9.0554 48.6605 9.14489 48.5611 9.32386C48.4645 9.50284 48.4148 9.69602 48.4119 9.90341ZM42.6932 5.36932V4.90909C42.696 4.55682 42.7713 4.23437 42.919 3.94176C43.0696 3.64631 43.2869 3.41051 43.571 3.23438C43.858 3.05824 44.2045 2.97017 44.6108 2.97017C45.0313 2.97017 45.3835 3.05824 45.6676 3.23438C45.9545 3.41051 46.1705 3.64631 46.3153 3.94176C46.4631 4.23437 46.5369 4.55682 46.5369 4.90909V5.36932C46.5369 5.72159 46.4631 6.04403 46.3153 6.33665C46.1676 6.62926 45.9503 6.86364 45.6634 7.03977C45.3764 7.21307 45.0256 7.29972 44.6108 7.29972C44.196 7.29972 43.8466 7.21165 43.5625 7.03551C43.2784 6.85653 43.0625 6.62216 42.9148 6.33239C42.7699 6.03977 42.696 5.71875 42.6932 5.36932ZM43.9418 4.90909V5.36932C43.9446 5.5767 43.9943 5.76847 44.0909 5.9446C44.1875 6.12074 44.3608 6.20881 44.6108 6.20881C44.8722 6.20881 45.0511 6.12074 45.1477 5.9446C45.2443 5.76847 45.2912 5.5767 45.2884 5.36932V4.90909C45.2912 4.7017 45.2457 4.50852 45.152 4.32955C45.0611 4.15057 44.8807 4.06108 44.6108 4.06108C44.358 4.06108 44.1832 4.15199 44.0866 4.33381C43.9929 4.51562 43.9446 4.70739 43.9418 4.90909ZM43.1108 12L49.1108 3.27273H50.223L44.223 12H43.1108Z" fill="#1EB589"/>
<path fill-rule="evenodd" clip-rule="evenodd" d="M0 10L4 6L8 10H0Z" fill="#1EB589"/>
</g>
<defs>
<clipPath id="clip0_0_795">
<rect width="52" height="15" fill="white"/>
</clipPath>
</defs>
</svg>
