<svg width="29" height="15" viewBox="0 0 29 15" fill="none" xmlns="http://www.w3.org/2000/svg">
<g clip-path="url(#clip0_0_942)">
<path d="M14.7106 12.1193C14.0742 12.1193 13.5075 12.0099 13.0103 11.7912C12.516 11.5696 12.1254 11.2656 11.8384 10.8793C11.5543 10.4901 11.408 10.0412 11.3995 9.53267H13.2575C13.2688 9.74574 13.3384 9.93324 13.4663 10.0952C13.5969 10.2543 13.7702 10.3778 13.9862 10.4659C14.2021 10.554 14.445 10.598 14.7148 10.598C14.9961 10.598 15.2447 10.5483 15.4606 10.4489C15.6765 10.3494 15.8455 10.2116 15.9677 10.0355C16.0898 9.85937 16.1509 9.65625 16.1509 9.42614C16.1509 9.19318 16.0856 8.98722 15.9549 8.80824C15.8271 8.62642 15.6424 8.48437 15.4009 8.3821C15.1623 8.27983 14.8782 8.22869 14.5487 8.22869H13.7347V6.87358H14.5487C14.8271 6.87358 15.0728 6.82528 15.2859 6.72869C15.5018 6.6321 15.6694 6.49858 15.7887 6.32812C15.908 6.15483 15.9677 5.95312 15.9677 5.72301C15.9677 5.50426 15.9151 5.3125 15.81 5.14773C15.7077 4.98011 15.5629 4.84943 15.3754 4.75568C15.1907 4.66193 14.9748 4.61506 14.7276 4.61506C14.4776 4.61506 14.2489 4.66051 14.0415 4.75142C13.8342 4.83949 13.668 4.96591 13.543 5.13068C13.418 5.29545 13.3512 5.48864 13.3427 5.71023H11.5742C11.5827 5.20739 11.7262 4.7642 12.0046 4.38068C12.283 3.99716 12.658 3.69744 13.1296 3.48153C13.604 3.26278 14.1396 3.15341 14.7362 3.15341C15.3384 3.15341 15.8654 3.26278 16.3171 3.48153C16.7688 3.70028 17.1197 3.99574 17.3697 4.3679C17.6225 4.73722 17.7475 5.15199 17.7447 5.61222C17.7475 6.10085 17.5955 6.50852 17.2887 6.83523C16.9847 7.16193 16.5884 7.36932 16.0998 7.45739V7.52557C16.7418 7.60795 17.2305 7.83097 17.5657 8.1946C17.9038 8.5554 18.0714 9.0071 18.0685 9.54972C18.0714 10.0469 17.9279 10.4886 17.6381 10.875C17.3512 11.2614 16.9549 11.5653 16.4492 11.7869C15.9435 12.0085 15.364 12.1193 14.7106 12.1193ZM24.1719 10.3636V9.90341C24.1747 9.55398 24.25 9.23295 24.3977 8.94034C24.5483 8.64489 24.7656 8.40909 25.0497 8.23295C25.3338 8.05398 25.6818 7.96449 26.0938 7.96449C26.5114 7.96449 26.8622 8.05256 27.1463 8.22869C27.4332 8.40483 27.6491 8.64062 27.794 8.93608C27.9418 9.22869 28.0156 9.55114 28.0156 9.90341V10.3636C28.0156 10.7131 27.9418 11.0355 27.794 11.331C27.6463 11.6236 27.429 11.858 27.142 12.0341C26.8551 12.2131 26.5057 12.3026 26.0938 12.3026C25.6761 12.3026 25.3253 12.2131 25.0412 12.0341C24.7571 11.858 24.5412 11.6236 24.3935 11.331C24.2486 11.0355 24.1747 10.7131 24.1719 10.3636ZM25.4119 9.90341V10.3636C25.4148 10.5653 25.4645 10.7557 25.5611 10.9347C25.6577 11.1136 25.8352 11.2031 26.0938 11.2031C26.3523 11.2031 26.5298 11.1151 26.6264 10.9389C26.723 10.7628 26.7699 10.571 26.767 10.3636V9.90341C26.7699 9.69602 26.7244 9.50284 26.6307 9.32386C26.5398 9.14489 26.3608 9.0554 26.0938 9.0554C25.8381 9.0554 25.6605 9.14489 25.5611 9.32386C25.4645 9.50284 25.4148 9.69602 25.4119 9.90341ZM19.6932 5.36932V4.90909C19.696 4.55682 19.7713 4.23437 19.919 3.94176C20.0696 3.64631 20.2869 3.41051 20.571 3.23438C20.858 3.05824 21.2045 2.97017 21.6108 2.97017C22.0313 2.97017 22.3835 3.05824 22.6676 3.23438C22.9545 3.41051 23.1705 3.64631 23.3153 3.94176C23.4631 4.23437 23.5369 4.55682 23.5369 4.90909V5.36932C23.5369 5.72159 23.4631 6.04403 23.3153 6.33665C23.1676 6.62926 22.9503 6.86364 22.6634 7.03977C22.3764 7.21307 22.0256 7.29972 21.6108 7.29972C21.196 7.29972 20.8466 7.21165 20.5625 7.03551C20.2784 6.85653 20.0625 6.62216 19.9148 6.33239C19.7699 6.03977 19.696 5.71875 19.6932 5.36932ZM20.9418 4.90909V5.36932C20.9446 5.5767 20.9943 5.76847 21.0909 5.9446C21.1875 6.12074 21.3608 6.20881 21.6108 6.20881C21.8722 6.20881 22.0511 6.12074 22.1477 5.9446C22.2443 5.76847 22.2912 5.5767 22.2884 5.36932V4.90909C22.2912 4.7017 22.2457 4.50852 22.152 4.32955C22.0611 4.15057 21.8807 4.06108 21.6108 4.06108C21.358 4.06108 21.1832 4.15199 21.0866 4.33381C20.9929 4.51562 20.9446 4.70739 20.9418 4.90909ZM20.1108 12L26.1108 3.27273H27.223L21.223 12H20.1108Z" fill="#1EB589"/>
<path fill-rule="evenodd" clip-rule="evenodd" d="M0 10L4 6L8 10H0Z" fill="#1EB589"/>
</g>
<defs>
<clipPath id="clip0_0_942">
<rect width="29" height="15" fill="white"/>
</clipPath>
</defs>
</svg>
