<svg width="49" height="15" viewBox="0 0 49 15" fill="none" xmlns="http://www.w3.org/2000/svg">
<g clip-path="url(#clip0_0_781)">
<path d="M14.6566 3.27273V12H12.8114V5.02415H12.7603L10.7617 6.27699V4.64062L12.9222 3.27273H14.6566ZM19.9567 12.1193C19.3203 12.1193 18.7536 12.0099 18.2564 11.7912C17.7621 11.5696 17.3714 11.2656 17.0845 10.8793C16.8004 10.4901 16.6541 10.0412 16.6456 9.53267H18.5036C18.5149 9.74574 18.5845 9.93324 18.7124 10.0952C18.843 10.2543 19.0163 10.3778 19.2322 10.4659C19.4482 10.554 19.6911 10.598 19.9609 10.598C20.2422 10.598 20.4908 10.5483 20.7067 10.4489C20.9226 10.3494 21.0916 10.2116 21.2138 10.0355C21.3359 9.85937 21.397 9.65625 21.397 9.42614C21.397 9.19318 21.3317 8.98722 21.201 8.80824C21.0732 8.62642 20.8885 8.48437 20.647 8.3821C20.4084 8.27983 20.1243 8.22869 19.7947 8.22869H18.9808V6.87358H19.7947C20.0732 6.87358 20.3189 6.82528 20.532 6.72869C20.7479 6.6321 20.9155 6.49858 21.0348 6.32812C21.1541 6.15483 21.2138 5.95312 21.2138 5.72301C21.2138 5.50426 21.1612 5.3125 21.0561 5.14773C20.9538 4.98011 20.8089 4.84943 20.6214 4.75568C20.4368 4.66193 20.2209 4.61506 19.9737 4.61506C19.7237 4.61506 19.495 4.66051 19.2876 4.75142C19.0803 4.83949 18.9141 4.96591 18.7891 5.13068C18.6641 5.29545 18.5973 5.48864 18.5888 5.71023H16.8203C16.8288 5.20739 16.9723 4.7642 17.2507 4.38068C17.5291 3.99716 17.9041 3.69744 18.3757 3.48153C18.8501 3.26278 19.3857 3.15341 19.9822 3.15341C20.5845 3.15341 21.1115 3.26278 21.5632 3.48153C22.0149 3.70028 22.3658 3.99574 22.6158 4.3679C22.8686 4.73722 22.9936 5.15199 22.9908 5.61222C22.9936 6.10085 22.8416 6.50852 22.5348 6.83523C22.2308 7.16193 21.8345 7.36932 21.3459 7.45739V7.52557C21.9879 7.60795 22.4766 7.83097 22.8118 8.1946C23.1499 8.5554 23.3175 9.0071 23.3146 9.54972C23.3175 10.0469 23.174 10.4886 22.8842 10.875C22.5973 11.2614 22.201 11.5653 21.6953 11.7869C21.1896 12.0085 20.6101 12.1193 19.9567 12.1193ZM24.9862 12L28.604 4.84091V4.78125H24.3896V3.27273H30.5131V4.80256L26.891 12H24.9862ZM34.848 12.1193C34.2457 12.1193 33.7088 12.0085 33.2372 11.7869C32.7685 11.5653 32.3963 11.2599 32.1207 10.8707C31.8452 10.4815 31.7017 10.0355 31.6903 9.53267H33.4801C33.5 9.87074 33.642 10.1449 33.9062 10.3551C34.1705 10.5653 34.4844 10.6705 34.848 10.6705C35.1378 10.6705 35.3935 10.6065 35.6151 10.4787C35.8395 10.348 36.0142 10.1676 36.1392 9.9375C36.267 9.70455 36.331 9.4375 36.331 9.13636C36.331 8.82955 36.2656 8.55966 36.1349 8.3267C36.0071 8.09375 35.8295 7.91193 35.6023 7.78125C35.375 7.65057 35.1151 7.58381 34.8224 7.58097C34.5668 7.58097 34.3182 7.63352 34.0767 7.73864C33.8381 7.84375 33.652 7.98722 33.5185 8.16903L31.8778 7.875L32.2912 3.27273H37.6264V4.78125H33.8125L33.5866 6.96733H33.6378C33.7912 6.75142 34.0227 6.57244 34.3324 6.4304C34.642 6.28835 34.9886 6.21733 35.3722 6.21733C35.8977 6.21733 36.3665 6.34091 36.7784 6.58807C37.1903 6.83523 37.5156 7.17472 37.7543 7.60653C37.9929 8.03551 38.1108 8.52983 38.108 9.08949C38.1108 9.67756 37.9744 10.2003 37.6989 10.6577C37.4261 11.1122 37.044 11.4702 36.5526 11.7315C36.0639 11.9901 35.4957 12.1193 34.848 12.1193ZM44.1719 10.3636V9.90341C44.1747 9.55398 44.25 9.23295 44.3977 8.94034C44.5483 8.64489 44.7656 8.40909 45.0497 8.23295C45.3338 8.05398 45.6818 7.96449 46.0938 7.96449C46.5114 7.96449 46.8622 8.05256 47.1463 8.22869C47.4332 8.40483 47.6491 8.64062 47.794 8.93608C47.9418 9.22869 48.0156 9.55114 48.0156 9.90341V10.3636C48.0156 10.7131 47.9418 11.0355 47.794 11.331C47.6463 11.6236 47.429 11.858 47.142 12.0341C46.8551 12.2131 46.5057 12.3026 46.0938 12.3026C45.6761 12.3026 45.3253 12.2131 45.0412 12.0341C44.7571 11.858 44.5412 11.6236 44.3935 11.331C44.2486 11.0355 44.1747 10.7131 44.1719 10.3636ZM45.4119 9.90341V10.3636C45.4148 10.5653 45.4645 10.7557 45.5611 10.9347C45.6577 11.1136 45.8352 11.2031 46.0938 11.2031C46.3523 11.2031 46.5298 11.1151 46.6264 10.9389C46.723 10.7628 46.7699 10.571 46.767 10.3636V9.90341C46.7699 9.69602 46.7244 9.50284 46.6307 9.32386C46.5398 9.14489 46.3608 9.0554 46.0938 9.0554C45.8381 9.0554 45.6605 9.14489 45.5611 9.32386C45.4645 9.50284 45.4148 9.69602 45.4119 9.90341ZM39.6932 5.36932V4.90909C39.696 4.55682 39.7713 4.23437 39.919 3.94176C40.0696 3.64631 40.2869 3.41051 40.571 3.23438C40.858 3.05824 41.2045 2.97017 41.6108 2.97017C42.0313 2.97017 42.3835 3.05824 42.6676 3.23438C42.9545 3.41051 43.1705 3.64631 43.3153 3.94176C43.4631 4.23437 43.5369 4.55682 43.5369 4.90909V5.36932C43.5369 5.72159 43.4631 6.04403 43.3153 6.33665C43.1676 6.62926 42.9503 6.86364 42.6634 7.03977C42.3764 7.21307 42.0256 7.29972 41.6108 7.29972C41.196 7.29972 40.8466 7.21165 40.5625 7.03551C40.2784 6.85653 40.0625 6.62216 39.9148 6.33239C39.7699 6.03977 39.696 5.71875 39.6932 5.36932ZM40.9418 4.90909V5.36932C40.9446 5.5767 40.9943 5.76847 41.0909 5.9446C41.1875 6.12074 41.3608 6.20881 41.6108 6.20881C41.8722 6.20881 42.0511 6.12074 42.1477 5.9446C42.2443 5.76847 42.2912 5.5767 42.2884 5.36932V4.90909C42.2912 4.7017 42.2457 4.50852 42.152 4.32955C42.0611 4.15057 41.8807 4.06108 41.6108 4.06108C41.358 4.06108 41.1832 4.15199 41.0866 4.33381C40.9929 4.51562 40.9446 4.70739 40.9418 4.90909ZM40.1108 12L46.1108 3.27273H47.223L41.223 12H40.1108Z" fill="#1EB589"/>
<path fill-rule="evenodd" clip-rule="evenodd" d="M0 10L4 6L8 10H0Z" fill="#1EB589"/>
</g>
<defs>
<clipPath id="clip0_0_781">
<rect width="49" height="15" fill="white"/>
</clipPath>
</defs>
</svg>
