<svg width="34" height="15" viewBox="0 0 34 15" fill="none" xmlns="http://www.w3.org/2000/svg">
<g clip-path="url(#clip0_0_767)">
<path d="M14.7621 3.27273V12H12.9169V5.02415H12.8658L10.8672 6.27699V4.64062L13.0277 3.27273H14.7621ZM16.8363 12V10.6705L19.9428 7.79403C20.207 7.53835 20.4286 7.30824 20.6076 7.10369C20.7894 6.89915 20.9272 6.69886 21.021 6.50284C21.1147 6.30398 21.1616 6.08949 21.1616 5.85938C21.1616 5.60369 21.1033 5.38352 20.9869 5.19886C20.8704 5.01136 20.7113 4.8679 20.5096 4.76847C20.3079 4.66619 20.0792 4.61506 19.8235 4.61506C19.5565 4.61506 19.3235 4.66903 19.1246 4.77699C18.9258 4.88494 18.7724 5.03977 18.6644 5.24148C18.5565 5.44318 18.5025 5.68324 18.5025 5.96165H16.7511C16.7511 5.39062 16.8803 4.89489 17.1388 4.47443C17.3974 4.05398 17.7596 3.72869 18.2255 3.49858C18.6914 3.26847 19.2283 3.15341 19.8363 3.15341C20.4613 3.15341 21.0053 3.2642 21.4684 3.4858C21.9343 3.70455 22.2965 4.00852 22.555 4.39773C22.8136 4.78693 22.9428 5.23295 22.9428 5.7358C22.9428 6.06534 22.8775 6.39062 22.7468 6.71165C22.619 7.03267 22.3903 7.3892 22.0607 7.78125C21.7312 8.17045 21.2667 8.63778 20.6673 9.18324L19.3931 10.4318V10.4915H23.0579V12H16.8363ZM29.1719 10.3636V9.90341C29.1747 9.55398 29.25 9.23295 29.3977 8.94034C29.5483 8.64489 29.7656 8.40909 30.0497 8.23295C30.3338 8.05398 30.6818 7.96449 31.0938 7.96449C31.5114 7.96449 31.8622 8.05256 32.1463 8.22869C32.4332 8.40483 32.6491 8.64062 32.794 8.93608C32.9418 9.22869 33.0156 9.55114 33.0156 9.90341V10.3636C33.0156 10.7131 32.9418 11.0355 32.794 11.331C32.6463 11.6236 32.429 11.858 32.142 12.0341C31.8551 12.2131 31.5057 12.3026 31.0938 12.3026C30.6761 12.3026 30.3253 12.2131 30.0412 12.0341C29.7571 11.858 29.5412 11.6236 29.3935 11.331C29.2486 11.0355 29.1747 10.7131 29.1719 10.3636ZM30.4119 9.90341V10.3636C30.4148 10.5653 30.4645 10.7557 30.5611 10.9347C30.6577 11.1136 30.8352 11.2031 31.0938 11.2031C31.3523 11.2031 31.5298 11.1151 31.6264 10.9389C31.723 10.7628 31.7699 10.571 31.767 10.3636V9.90341C31.7699 9.69602 31.7244 9.50284 31.6307 9.32386C31.5398 9.14489 31.3608 9.0554 31.0938 9.0554C30.8381 9.0554 30.6605 9.14489 30.5611 9.32386C30.4645 9.50284 30.4148 9.69602 30.4119 9.90341ZM24.6932 5.36932V4.90909C24.696 4.55682 24.7713 4.23437 24.919 3.94176C25.0696 3.64631 25.2869 3.41051 25.571 3.23438C25.858 3.05824 26.2045 2.97017 26.6108 2.97017C27.0313 2.97017 27.3835 3.05824 27.6676 3.23438C27.9545 3.41051 28.1705 3.64631 28.3153 3.94176C28.4631 4.23437 28.5369 4.55682 28.5369 4.90909V5.36932C28.5369 5.72159 28.4631 6.04403 28.3153 6.33665C28.1676 6.62926 27.9503 6.86364 27.6634 7.03977C27.3764 7.21307 27.0256 7.29972 26.6108 7.29972C26.196 7.29972 25.8466 7.21165 25.5625 7.03551C25.2784 6.85653 25.0625 6.62216 24.9148 6.33239C24.7699 6.03977 24.696 5.71875 24.6932 5.36932ZM25.9418 4.90909V5.36932C25.9446 5.5767 25.9943 5.76847 26.0909 5.9446C26.1875 6.12074 26.3608 6.20881 26.6108 6.20881C26.8722 6.20881 27.0511 6.12074 27.1477 5.9446C27.2443 5.76847 27.2912 5.5767 27.2884 5.36932V4.90909C27.2912 4.7017 27.2457 4.50852 27.152 4.32955C27.0611 4.15057 26.8807 4.06108 26.6108 4.06108C26.358 4.06108 26.1832 4.15199 26.0866 4.33381C25.9929 4.51562 25.9446 4.70739 25.9418 4.90909ZM25.1108 12L31.1108 3.27273H32.223L26.223 12H25.1108Z" fill="#DC414C"/>
<path fill-rule="evenodd" clip-rule="evenodd" d="M0 6L4 10L8 6H0Z" fill="#DC414C"/>
</g>
<defs>
<clipPath id="clip0_0_767">
<rect width="34" height="15" fill="white"/>
</clipPath>
</defs>
</svg>
