<svg width="46" height="15" viewBox="0 0 46 15" fill="none" xmlns="http://www.w3.org/2000/svg">
<g clip-path="url(#clip0_0_755)">
<path d="M16.2035 12.1193C15.6012 12.1193 15.0643 12.0085 14.5927 11.7869C14.1239 11.5653 13.7518 11.2599 13.4762 10.8707C13.2006 10.4815 13.0572 10.0355 13.0458 9.53267H14.8356C14.8555 9.87074 14.9975 10.1449 15.2617 10.3551C15.5259 10.5653 15.8398 10.6705 16.2035 10.6705C16.4933 10.6705 16.7489 10.6065 16.9705 10.4787C17.195 10.348 17.3697 10.1676 17.4947 9.9375C17.6225 9.70455 17.6864 9.4375 17.6864 9.13636C17.6864 8.82955 17.6211 8.55966 17.4904 8.3267C17.3626 8.09375 17.185 7.91193 16.9577 7.78125C16.7305 7.65057 16.4705 7.58381 16.1779 7.58097C15.9222 7.58097 15.6737 7.63352 15.4322 7.73864C15.1935 7.84375 15.0075 7.98722 14.8739 8.16903L13.2333 7.875L13.6467 3.27273H18.9819V4.78125H15.168L14.9421 6.96733H14.9933C15.1467 6.75142 15.3782 6.57244 15.6879 6.4304C15.9975 6.28835 16.3441 6.21733 16.7276 6.21733C17.2532 6.21733 17.7219 6.34091 18.1339 6.58807C18.5458 6.83523 18.8711 7.17472 19.1097 7.60653C19.3484 8.03551 19.4663 8.52983 19.4634 9.08949C19.4663 9.67756 19.3299 10.2003 19.0543 10.6577C18.7816 11.1122 18.3995 11.4702 17.908 11.7315C17.4194 11.9901 16.8512 12.1193 16.2035 12.1193ZM23.9379 12.1193C23.3356 12.1193 22.7987 12.0085 22.3271 11.7869C21.8583 11.5653 21.4862 11.2599 21.2106 10.8707C20.935 10.4815 20.7915 10.0355 20.7802 9.53267H22.57C22.5898 9.87074 22.7319 10.1449 22.9961 10.3551C23.2603 10.5653 23.5742 10.6705 23.9379 10.6705C24.2276 10.6705 24.4833 10.6065 24.7049 10.4787C24.9293 10.348 25.104 10.1676 25.229 9.9375C25.3569 9.70455 25.4208 9.4375 25.4208 9.13636C25.4208 8.82955 25.3555 8.55966 25.2248 8.3267C25.0969 8.09375 24.9194 7.91193 24.6921 7.78125C24.4648 7.65057 24.2049 7.58381 23.9123 7.58097C23.6566 7.58097 23.408 7.63352 23.1665 7.73864C22.9279 7.84375 22.7418 7.98722 22.6083 8.16903L20.9677 7.875L21.381 3.27273H26.7163V4.78125H22.9023L22.6765 6.96733H22.7276C22.881 6.75142 23.1126 6.57244 23.4222 6.4304C23.7319 6.28835 24.0785 6.21733 24.462 6.21733C24.9876 6.21733 25.4563 6.34091 25.8683 6.58807C26.2802 6.83523 26.6055 7.17472 26.8441 7.60653C27.0827 8.03551 27.2006 8.52983 27.1978 9.08949C27.2006 9.67756 27.0643 10.2003 26.7887 10.6577C26.516 11.1122 26.1339 11.4702 25.6424 11.7315C25.1538 11.9901 24.5856 12.1193 23.9379 12.1193ZM31.7106 12.1193C31.0742 12.1193 30.5075 12.0099 30.0103 11.7912C29.516 11.5696 29.1254 11.2656 28.8384 10.8793C28.5543 10.4901 28.408 10.0412 28.3995 9.53267H30.2575C30.2688 9.74574 30.3384 9.93324 30.4663 10.0952C30.5969 10.2543 30.7702 10.3778 30.9862 10.4659C31.2021 10.554 31.445 10.598 31.7148 10.598C31.9961 10.598 32.2447 10.5483 32.4606 10.4489C32.6765 10.3494 32.8455 10.2116 32.9677 10.0355C33.0898 9.85937 33.1509 9.65625 33.1509 9.42614C33.1509 9.19318 33.0856 8.98722 32.9549 8.80824C32.8271 8.62642 32.6424 8.48437 32.4009 8.3821C32.1623 8.27983 31.8782 8.22869 31.5487 8.22869H30.7347V6.87358H31.5487C31.8271 6.87358 32.0728 6.82528 32.2859 6.72869C32.5018 6.6321 32.6694 6.49858 32.7887 6.32812C32.908 6.15483 32.9677 5.95312 32.9677 5.72301C32.9677 5.50426 32.9151 5.3125 32.81 5.14773C32.7077 4.98011 32.5629 4.84943 32.3754 4.75568C32.1907 4.66193 31.9748 4.61506 31.7276 4.61506C31.4776 4.61506 31.2489 4.66051 31.0415 4.75142C30.8342 4.83949 30.668 4.96591 30.543 5.13068C30.418 5.29545 30.3512 5.48864 30.3427 5.71023H28.5742C28.5827 5.20739 28.7262 4.7642 29.0046 4.38068C29.283 3.99716 29.658 3.69744 30.1296 3.48153C30.604 3.26278 31.1396 3.15341 31.7362 3.15341C32.3384 3.15341 32.8654 3.26278 33.3171 3.48153C33.7688 3.70028 34.1197 3.99574 34.3697 4.3679C34.6225 4.73722 34.7475 5.15199 34.7447 5.61222C34.7475 6.10085 34.5955 6.50852 34.2887 6.83523C33.9847 7.16193 33.5884 7.36932 33.0998 7.45739V7.52557C33.7418 7.60795 34.2305 7.83097 34.5657 8.1946C34.9038 8.5554 35.0714 9.0071 35.0685 9.54972C35.0714 10.0469 34.9279 10.4886 34.6381 10.875C34.3512 11.2614 33.9549 11.5653 33.4492 11.7869C32.9435 12.0085 32.364 12.1193 31.7106 12.1193ZM41.1719 10.3636V9.90341C41.1747 9.55398 41.25 9.23295 41.3977 8.94034C41.5483 8.64489 41.7656 8.40909 42.0497 8.23295C42.3338 8.05398 42.6818 7.96449 43.0938 7.96449C43.5114 7.96449 43.8622 8.05256 44.1463 8.22869C44.4332 8.40483 44.6491 8.64062 44.794 8.93608C44.9418 9.22869 45.0156 9.55114 45.0156 9.90341V10.3636C45.0156 10.7131 44.9418 11.0355 44.794 11.331C44.6463 11.6236 44.429 11.858 44.142 12.0341C43.8551 12.2131 43.5057 12.3026 43.0938 12.3026C42.6761 12.3026 42.3253 12.2131 42.0412 12.0341C41.7571 11.858 41.5412 11.6236 41.3935 11.331C41.2486 11.0355 41.1747 10.7131 41.1719 10.3636ZM42.4119 9.90341V10.3636C42.4148 10.5653 42.4645 10.7557 42.5611 10.9347C42.6577 11.1136 42.8352 11.2031 43.0938 11.2031C43.3523 11.2031 43.5298 11.1151 43.6264 10.9389C43.723 10.7628 43.7699 10.571 43.767 10.3636V9.90341C43.7699 9.69602 43.7244 9.50284 43.6307 9.32386C43.5398 9.14489 43.3608 9.0554 43.0938 9.0554C42.8381 9.0554 42.6605 9.14489 42.5611 9.32386C42.4645 9.50284 42.4148 9.69602 42.4119 9.90341ZM36.6932 5.36932V4.90909C36.696 4.55682 36.7713 4.23437 36.919 3.94176C37.0696 3.64631 37.2869 3.41051 37.571 3.23438C37.858 3.05824 38.2045 2.97017 38.6108 2.97017C39.0313 2.97017 39.3835 3.05824 39.6676 3.23438C39.9545 3.41051 40.1705 3.64631 40.3153 3.94176C40.4631 4.23437 40.5369 4.55682 40.5369 4.90909V5.36932C40.5369 5.72159 40.4631 6.04403 40.3153 6.33665C40.1676 6.62926 39.9503 6.86364 39.6634 7.03977C39.3764 7.21307 39.0256 7.29972 38.6108 7.29972C38.196 7.29972 37.8466 7.21165 37.5625 7.03551C37.2784 6.85653 37.0625 6.62216 36.9148 6.33239C36.7699 6.03977 36.696 5.71875 36.6932 5.36932ZM37.9418 4.90909V5.36932C37.9446 5.5767 37.9943 5.76847 38.0909 5.9446C38.1875 6.12074 38.3608 6.20881 38.6108 6.20881C38.8722 6.20881 39.0511 6.12074 39.1477 5.9446C39.2443 5.76847 39.2912 5.5767 39.2884 5.36932V4.90909C39.2912 4.7017 39.2457 4.50852 39.152 4.32955C39.0611 4.15057 38.8807 4.06108 38.6108 4.06108C38.358 4.06108 38.1832 4.15199 38.0866 4.33381C37.9929 4.51562 37.9446 4.70739 37.9418 4.90909ZM37.1108 12L43.1108 3.27273H44.223L38.223 12H37.1108Z" fill="#1EB589"/>
<path fill-rule="evenodd" clip-rule="evenodd" d="M0 10L4 6L8 10H0Z" fill="#1EB589"/>
</g>
<defs>
<clipPath id="clip0_0_755">
<rect width="46" height="15" fill="white"/>
</clipPath>
</defs>
</svg>
