<svg width="29" height="15" viewBox="0 0 29 15" fill="none" xmlns="http://www.w3.org/2000/svg">
<g clip-path="url(#clip0_0_987)">
<path d="M11.8363 12V10.6705L14.9428 7.79403C15.207 7.53835 15.4286 7.30824 15.6076 7.10369C15.7894 6.89915 15.9272 6.69886 16.021 6.50284C16.1147 6.30398 16.1616 6.08949 16.1616 5.85938C16.1616 5.60369 16.1033 5.38352 15.9869 5.19886C15.8704 5.01136 15.7113 4.8679 15.5096 4.76847C15.3079 4.66619 15.0792 4.61506 14.8235 4.61506C14.5565 4.61506 14.3235 4.66903 14.1246 4.77699C13.9258 4.88494 13.7724 5.03977 13.6644 5.24148C13.5565 5.44318 13.5025 5.68324 13.5025 5.96165H11.7511C11.7511 5.39062 11.8803 4.89489 12.1388 4.47443C12.3974 4.05398 12.7596 3.72869 13.2255 3.49858C13.6914 3.26847 14.2283 3.15341 14.8363 3.15341C15.4613 3.15341 16.0053 3.2642 16.4684 3.4858C16.9343 3.70455 17.2965 4.00852 17.555 4.39773C17.8136 4.78693 17.9428 5.23295 17.9428 5.7358C17.9428 6.06534 17.8775 6.39062 17.7468 6.71165C17.619 7.03267 17.3903 7.3892 17.0607 7.78125C16.7312 8.17045 16.2667 8.63778 15.6673 9.18324L14.3931 10.4318V10.4915H18.0579V12H11.8363ZM24.1719 10.3636V9.90341C24.1747 9.55398 24.25 9.23295 24.3977 8.94034C24.5483 8.64489 24.7656 8.40909 25.0497 8.23295C25.3338 8.05398 25.6818 7.96449 26.0938 7.96449C26.5114 7.96449 26.8622 8.05256 27.1463 8.22869C27.4332 8.40483 27.6491 8.64062 27.794 8.93608C27.9418 9.22869 28.0156 9.55114 28.0156 9.90341V10.3636C28.0156 10.7131 27.9418 11.0355 27.794 11.331C27.6463 11.6236 27.429 11.858 27.142 12.0341C26.8551 12.2131 26.5057 12.3026 26.0938 12.3026C25.6761 12.3026 25.3253 12.2131 25.0412 12.0341C24.7571 11.858 24.5412 11.6236 24.3935 11.331C24.2486 11.0355 24.1747 10.7131 24.1719 10.3636ZM25.4119 9.90341V10.3636C25.4148 10.5653 25.4645 10.7557 25.5611 10.9347C25.6577 11.1136 25.8352 11.2031 26.0938 11.2031C26.3523 11.2031 26.5298 11.1151 26.6264 10.9389C26.723 10.7628 26.7699 10.571 26.767 10.3636V9.90341C26.7699 9.69602 26.7244 9.50284 26.6307 9.32386C26.5398 9.14489 26.3608 9.0554 26.0938 9.0554C25.8381 9.0554 25.6605 9.14489 25.5611 9.32386C25.4645 9.50284 25.4148 9.69602 25.4119 9.90341ZM19.6932 5.36932V4.90909C19.696 4.55682 19.7713 4.23437 19.919 3.94176C20.0696 3.64631 20.2869 3.41051 20.571 3.23438C20.858 3.05824 21.2045 2.97017 21.6108 2.97017C22.0313 2.97017 22.3835 3.05824 22.6676 3.23438C22.9545 3.41051 23.1705 3.64631 23.3153 3.94176C23.4631 4.23437 23.5369 4.55682 23.5369 4.90909V5.36932C23.5369 5.72159 23.4631 6.04403 23.3153 6.33665C23.1676 6.62926 22.9503 6.86364 22.6634 7.03977C22.3764 7.21307 22.0256 7.29972 21.6108 7.29972C21.196 7.29972 20.8466 7.21165 20.5625 7.03551C20.2784 6.85653 20.0625 6.62216 19.9148 6.33239C19.7699 6.03977 19.696 5.71875 19.6932 5.36932ZM20.9418 4.90909V5.36932C20.9446 5.5767 20.9943 5.76847 21.0909 5.9446C21.1875 6.12074 21.3608 6.20881 21.6108 6.20881C21.8722 6.20881 22.0511 6.12074 22.1477 5.9446C22.2443 5.76847 22.2912 5.5767 22.2884 5.36932V4.90909C22.2912 4.7017 22.2457 4.50852 22.152 4.32955C22.0611 4.15057 21.8807 4.06108 21.6108 4.06108C21.358 4.06108 21.1832 4.15199 21.0866 4.33381C20.9929 4.51562 20.9446 4.70739 20.9418 4.90909ZM20.1108 12L26.1108 3.27273H27.223L21.223 12H20.1108Z" fill="#DC414C"/>
<path fill-rule="evenodd" clip-rule="evenodd" d="M0 6L4 10L8 6H0Z" fill="#DC414C"/>
</g>
<defs>
<clipPath id="clip0_0_987">
<rect width="29" height="15" fill="white"/>
</clipPath>
</defs>
</svg>
