<svg width="35" height="15" viewBox="0 0 35 15" fill="none" xmlns="http://www.w3.org/2000/svg">
<g clip-path="url(#clip0_0_809)">
<path d="M15.3988 3.27273V12H13.5536V5.02415H13.5025L11.5039 6.27699V4.64062L13.6644 3.27273H15.3988ZM20.6307 3.12784C21.0795 3.12784 21.5114 3.20312 21.9261 3.35369C22.3438 3.50142 22.7159 3.74148 23.0426 4.07386C23.3722 4.40625 23.6321 4.84659 23.8224 5.39489C24.0156 5.94034 24.1136 6.61222 24.1165 7.41051C24.1136 8.15199 24.0284 8.81392 23.8608 9.39631C23.696 9.97585 23.4588 10.4688 23.1491 10.875C22.8395 11.2812 22.4659 11.5909 22.0284 11.804C21.5938 12.0142 21.1065 12.1193 20.5668 12.1193C19.9844 12.1193 19.4702 12.0071 19.0241 11.7827C18.5781 11.5554 18.2188 11.2472 17.946 10.858C17.6761 10.4659 17.5128 10.0256 17.456 9.53693H19.2756C19.3466 9.85511 19.4957 10.1023 19.723 10.2784C19.9503 10.4517 20.2315 10.5384 20.5668 10.5384C21.1349 10.5384 21.5668 10.2912 21.8622 9.79688C22.1577 9.29972 22.3068 8.61932 22.3097 7.75568H22.25C22.1193 8.01136 21.9432 8.23153 21.7216 8.41619C21.5 8.59801 21.2457 8.73864 20.9588 8.83807C20.6747 8.9375 20.3722 8.98722 20.0511 8.98722C19.5369 8.98722 19.0767 8.86648 18.6705 8.625C18.267 8.38352 17.9489 8.05114 17.7159 7.62784C17.483 7.2017 17.3679 6.71591 17.3707 6.17045C17.3679 5.57955 17.5028 5.0554 17.7756 4.59801C18.0483 4.13778 18.429 3.77699 18.9176 3.51562C19.4091 3.25426 19.9801 3.125 20.6307 3.12784ZM20.6435 4.5767C20.3565 4.5767 20.1009 4.64489 19.8764 4.78125C19.6548 4.91761 19.4787 5.10227 19.348 5.33523C19.2202 5.56818 19.1577 5.82955 19.1605 6.11932C19.1577 6.40909 19.2188 6.66903 19.3438 6.89915C19.4716 7.12926 19.6463 7.3125 19.8679 7.44886C20.0895 7.58239 20.3423 7.64915 20.6264 7.64915C20.8395 7.64915 21.0355 7.60937 21.2145 7.52983C21.3963 7.45028 21.554 7.34091 21.6875 7.2017C21.8239 7.05966 21.9304 6.89631 22.0071 6.71165C22.0838 6.52415 22.1236 6.32386 22.1264 6.1108C22.1236 5.82955 22.0582 5.57244 21.9304 5.33949C21.8026 5.10653 21.6264 4.92188 21.402 4.78551C21.1776 4.64631 20.9247 4.5767 20.6435 4.5767ZM30.1719 10.3636V9.90341C30.1747 9.55398 30.25 9.23295 30.3977 8.94034C30.5483 8.64489 30.7656 8.40909 31.0497 8.23295C31.3338 8.05398 31.6818 7.96449 32.0938 7.96449C32.5114 7.96449 32.8622 8.05256 33.1463 8.22869C33.4332 8.40483 33.6491 8.64062 33.794 8.93608C33.9418 9.22869 34.0156 9.55114 34.0156 9.90341V10.3636C34.0156 10.7131 33.9418 11.0355 33.794 11.331C33.6463 11.6236 33.429 11.858 33.142 12.0341C32.8551 12.2131 32.5057 12.3026 32.0938 12.3026C31.6761 12.3026 31.3253 12.2131 31.0412 12.0341C30.7571 11.858 30.5412 11.6236 30.3935 11.331C30.2486 11.0355 30.1747 10.7131 30.1719 10.3636ZM31.4119 9.90341V10.3636C31.4148 10.5653 31.4645 10.7557 31.5611 10.9347C31.6577 11.1136 31.8352 11.2031 32.0938 11.2031C32.3523 11.2031 32.5298 11.1151 32.6264 10.9389C32.723 10.7628 32.7699 10.571 32.767 10.3636V9.90341C32.7699 9.69602 32.7244 9.50284 32.6307 9.32386C32.5398 9.14489 32.3608 9.0554 32.0938 9.0554C31.8381 9.0554 31.6605 9.14489 31.5611 9.32386C31.4645 9.50284 31.4148 9.69602 31.4119 9.90341ZM25.6932 5.36932V4.90909C25.696 4.55682 25.7713 4.23437 25.919 3.94176C26.0696 3.64631 26.2869 3.41051 26.571 3.23438C26.858 3.05824 27.2045 2.97017 27.6108 2.97017C28.0313 2.97017 28.3835 3.05824 28.6676 3.23438C28.9545 3.41051 29.1705 3.64631 29.3153 3.94176C29.4631 4.23437 29.5369 4.55682 29.5369 4.90909V5.36932C29.5369 5.72159 29.4631 6.04403 29.3153 6.33665C29.1676 6.62926 28.9503 6.86364 28.6634 7.03977C28.3764 7.21307 28.0256 7.29972 27.6108 7.29972C27.196 7.29972 26.8466 7.21165 26.5625 7.03551C26.2784 6.85653 26.0625 6.62216 25.9148 6.33239C25.7699 6.03977 25.696 5.71875 25.6932 5.36932ZM26.9418 4.90909V5.36932C26.9446 5.5767 26.9943 5.76847 27.0909 5.9446C27.1875 6.12074 27.3608 6.20881 27.6108 6.20881C27.8722 6.20881 28.0511 6.12074 28.1477 5.9446C28.2443 5.76847 28.2912 5.5767 28.2884 5.36932V4.90909C28.2912 4.7017 28.2457 4.50852 28.152 4.32955C28.0611 4.15057 27.8807 4.06108 27.6108 4.06108C27.358 4.06108 27.1832 4.15199 27.0866 4.33381C26.9929 4.51562 26.9446 4.70739 26.9418 4.90909ZM26.1108 12L32.1108 3.27273H33.223L27.223 12H26.1108Z" fill="#DC414C"/>
<path fill-rule="evenodd" clip-rule="evenodd" d="M0 6L4 10L8 6H0Z" fill="#DC414C"/>
</g>
<defs>
<clipPath id="clip0_0_809">
<rect width="35" height="15" fill="white"/>
</clipPath>
</defs>
</svg>
