<svg width="46" height="15" viewBox="0 0 46 15" fill="none" xmlns="http://www.w3.org/2000/svg">
<g clip-path="url(#clip0_0_746)">
<path d="M15.5387 12.1193C14.9023 12.1193 14.3356 12.0099 13.8384 11.7912C13.3441 11.5696 12.9535 11.2656 12.6665 10.8793C12.3825 10.4901 12.2362 10.0412 12.2276 9.53267H14.0856C14.0969 9.74574 14.1665 9.93324 14.2944 10.0952C14.4251 10.2543 14.5984 10.3778 14.8143 10.4659C15.0302 10.554 15.2731 10.598 15.543 10.598C15.8242 10.598 16.0728 10.5483 16.2887 10.4489C16.5046 10.3494 16.6737 10.2116 16.7958 10.0355C16.918 9.85937 16.979 9.65625 16.979 9.42614C16.979 9.19318 16.9137 8.98722 16.783 8.80824C16.6552 8.62642 16.4705 8.48437 16.229 8.3821C15.9904 8.27983 15.7063 8.22869 15.3768 8.22869H14.5629V6.87358H15.3768C15.6552 6.87358 15.9009 6.82528 16.114 6.72869C16.3299 6.6321 16.4975 6.49858 16.6168 6.32812C16.7362 6.15483 16.7958 5.95312 16.7958 5.72301C16.7958 5.50426 16.7433 5.3125 16.6381 5.14773C16.5359 4.98011 16.391 4.84943 16.2035 4.75568C16.0188 4.66193 15.8029 4.61506 15.5558 4.61506C15.3058 4.61506 15.0771 4.66051 14.8697 4.75142C14.6623 4.83949 14.4961 4.96591 14.3711 5.13068C14.2461 5.29545 14.1793 5.48864 14.1708 5.71023H12.4023C12.4109 5.20739 12.5543 4.7642 12.8327 4.38068C13.1112 3.99716 13.4862 3.69744 13.9577 3.48153C14.4322 3.26278 14.9677 3.15341 15.5643 3.15341C16.1665 3.15341 16.6935 3.26278 17.1452 3.48153C17.5969 3.70028 17.9478 3.99574 18.1978 4.3679C18.4506 4.73722 18.5756 5.15199 18.5728 5.61222C18.5756 6.10085 18.4237 6.50852 18.1168 6.83523C17.8129 7.16193 17.4165 7.36932 16.9279 7.45739V7.52557C17.57 7.60795 18.0586 7.83097 18.3938 8.1946C18.7319 8.5554 18.8995 9.0071 18.8967 9.54972C18.8995 10.0469 18.756 10.4886 18.4663 10.875C18.1793 11.2614 17.783 11.5653 17.2773 11.7869C16.7717 12.0085 16.1921 12.1193 15.5387 12.1193ZM23.6449 12.1918C22.9119 12.1889 22.2813 12.0085 21.7528 11.6506C21.2273 11.2926 20.8224 10.7741 20.5384 10.0952C20.2571 9.41619 20.1179 8.59943 20.1207 7.64489C20.1207 6.69318 20.2614 5.8821 20.5426 5.21165C20.8267 4.54119 21.2315 4.03125 21.7571 3.68182C22.2855 3.32955 22.9148 3.15341 23.6449 3.15341C24.375 3.15341 25.0028 3.32955 25.5284 3.68182C26.0568 4.03409 26.4631 4.54545 26.7472 5.21591C27.0313 5.88352 27.1719 6.69318 27.169 7.64489C27.169 8.60227 27.027 9.42045 26.7429 10.0994C26.4616 10.7784 26.0582 11.2969 25.5327 11.6548C25.0071 12.0128 24.3778 12.1918 23.6449 12.1918ZM23.6449 10.6619C24.1449 10.6619 24.544 10.4105 24.8423 9.90767C25.1406 9.40483 25.2884 8.65057 25.2855 7.64489C25.2855 6.98295 25.2173 6.43182 25.081 5.99148C24.9474 5.55114 24.7571 5.22017 24.5099 4.99858C24.2656 4.77699 23.9773 4.66619 23.6449 4.66619C23.1477 4.66619 22.75 4.91477 22.4517 5.41193C22.1534 5.90909 22.0028 6.65341 22 7.64489C22 8.31534 22.0668 8.875 22.2003 9.32386C22.3366 9.76989 22.5284 10.1051 22.7756 10.3295C23.0227 10.5511 23.3125 10.6619 23.6449 10.6619ZM31.7106 12.1193C31.0742 12.1193 30.5075 12.0099 30.0103 11.7912C29.516 11.5696 29.1254 11.2656 28.8384 10.8793C28.5543 10.4901 28.408 10.0412 28.3995 9.53267H30.2575C30.2688 9.74574 30.3384 9.93324 30.4663 10.0952C30.5969 10.2543 30.7702 10.3778 30.9862 10.4659C31.2021 10.554 31.445 10.598 31.7148 10.598C31.9961 10.598 32.2447 10.5483 32.4606 10.4489C32.6765 10.3494 32.8455 10.2116 32.9677 10.0355C33.0898 9.85937 33.1509 9.65625 33.1509 9.42614C33.1509 9.19318 33.0856 8.98722 32.9549 8.80824C32.8271 8.62642 32.6424 8.48437 32.4009 8.3821C32.1623 8.27983 31.8782 8.22869 31.5487 8.22869H30.7347V6.87358H31.5487C31.8271 6.87358 32.0728 6.82528 32.2859 6.72869C32.5018 6.6321 32.6694 6.49858 32.7887 6.32812C32.908 6.15483 32.9677 5.95312 32.9677 5.72301C32.9677 5.50426 32.9151 5.3125 32.81 5.14773C32.7077 4.98011 32.5629 4.84943 32.3754 4.75568C32.1907 4.66193 31.9748 4.61506 31.7276 4.61506C31.4776 4.61506 31.2489 4.66051 31.0415 4.75142C30.8342 4.83949 30.668 4.96591 30.543 5.13068C30.418 5.29545 30.3512 5.48864 30.3427 5.71023H28.5742C28.5827 5.20739 28.7262 4.7642 29.0046 4.38068C29.283 3.99716 29.658 3.69744 30.1296 3.48153C30.604 3.26278 31.1396 3.15341 31.7362 3.15341C32.3384 3.15341 32.8654 3.26278 33.3171 3.48153C33.7688 3.70028 34.1197 3.99574 34.3697 4.3679C34.6225 4.73722 34.7475 5.15199 34.7447 5.61222C34.7475 6.10085 34.5955 6.50852 34.2887 6.83523C33.9847 7.16193 33.5884 7.36932 33.0998 7.45739V7.52557C33.7418 7.60795 34.2305 7.83097 34.5657 8.1946C34.9038 8.5554 35.0714 9.0071 35.0685 9.54972C35.0714 10.0469 34.9279 10.4886 34.6381 10.875C34.3512 11.2614 33.9549 11.5653 33.4492 11.7869C32.9435 12.0085 32.364 12.1193 31.7106 12.1193ZM41.1719 10.3636V9.90341C41.1747 9.55398 41.25 9.23295 41.3977 8.94034C41.5483 8.64489 41.7656 8.40909 42.0497 8.23295C42.3338 8.05398 42.6818 7.96449 43.0938 7.96449C43.5114 7.96449 43.8622 8.05256 44.1463 8.22869C44.4332 8.40483 44.6491 8.64062 44.794 8.93608C44.9418 9.22869 45.0156 9.55114 45.0156 9.90341V10.3636C45.0156 10.7131 44.9418 11.0355 44.794 11.331C44.6463 11.6236 44.429 11.858 44.142 12.0341C43.8551 12.2131 43.5057 12.3026 43.0938 12.3026C42.6761 12.3026 42.3253 12.2131 42.0412 12.0341C41.7571 11.858 41.5412 11.6236 41.3935 11.331C41.2486 11.0355 41.1747 10.7131 41.1719 10.3636ZM42.4119 9.90341V10.3636C42.4148 10.5653 42.4645 10.7557 42.5611 10.9347C42.6577 11.1136 42.8352 11.2031 43.0938 11.2031C43.3523 11.2031 43.5298 11.1151 43.6264 10.9389C43.723 10.7628 43.7699 10.571 43.767 10.3636V9.90341C43.7699 9.69602 43.7244 9.50284 43.6307 9.32386C43.5398 9.14489 43.3608 9.0554 43.0938 9.0554C42.8381 9.0554 42.6605 9.14489 42.5611 9.32386C42.4645 9.50284 42.4148 9.69602 42.4119 9.90341ZM36.6932 5.36932V4.90909C36.696 4.55682 36.7713 4.23437 36.919 3.94176C37.0696 3.64631 37.2869 3.41051 37.571 3.23438C37.858 3.05824 38.2045 2.97017 38.6108 2.97017C39.0313 2.97017 39.3835 3.05824 39.6676 3.23438C39.9545 3.41051 40.1705 3.64631 40.3153 3.94176C40.4631 4.23437 40.5369 4.55682 40.5369 4.90909V5.36932C40.5369 5.72159 40.4631 6.04403 40.3153 6.33665C40.1676 6.62926 39.9503 6.86364 39.6634 7.03977C39.3764 7.21307 39.0256 7.29972 38.6108 7.29972C38.196 7.29972 37.8466 7.21165 37.5625 7.03551C37.2784 6.85653 37.0625 6.62216 36.9148 6.33239C36.7699 6.03977 36.696 5.71875 36.6932 5.36932ZM37.9418 4.90909V5.36932C37.9446 5.5767 37.9943 5.76847 38.0909 5.9446C38.1875 6.12074 38.3608 6.20881 38.6108 6.20881C38.8722 6.20881 39.0511 6.12074 39.1477 5.9446C39.2443 5.76847 39.2912 5.5767 39.2884 5.36932V4.90909C39.2912 4.7017 39.2457 4.50852 39.152 4.32955C39.0611 4.15057 38.8807 4.06108 38.6108 4.06108C38.358 4.06108 38.1832 4.15199 38.0866 4.33381C37.9929 4.51562 37.9446 4.70739 37.9418 4.90909ZM37.1108 12L43.1108 3.27273H44.223L38.223 12H37.1108Z" fill="#1EB589"/>
<path fill-rule="evenodd" clip-rule="evenodd" d="M0 10L4 6L8 10H0Z" fill="#1EB589"/>
</g>
<defs>
<clipPath id="clip0_0_746">
<rect width="46" height="15" fill="white"/>
</clipPath>
</defs>
</svg>
