<svg width="66" height="15" viewBox="0 0 66 15" fill="none" xmlns="http://www.w3.org/2000/svg">
<g clip-path="url(#clip0_0_878)">
<path d="M16.5043 3.27273V12H14.6591V5.02415H14.608L12.6094 6.27699V4.64062L14.7699 3.27273H16.5043ZM18.5785 12V10.6705L21.685 7.79403C21.9492 7.53835 22.1708 7.30824 22.3498 7.10369C22.5316 6.89915 22.6694 6.69886 22.7631 6.50284C22.8569 6.30398 22.9038 6.08949 22.9038 5.85938C22.9038 5.60369 22.8455 5.38352 22.729 5.19886C22.6126 5.01136 22.4535 4.8679 22.2518 4.76847C22.0501 4.66619 21.8214 4.61506 21.5657 4.61506C21.2987 4.61506 21.0657 4.66903 20.8668 4.77699C20.668 4.88494 20.5146 5.03977 20.4066 5.24148C20.2987 5.44318 20.2447 5.68324 20.2447 5.96165H18.4933C18.4933 5.39062 18.6225 4.89489 18.881 4.47443C19.1396 4.05398 19.5018 3.72869 19.9677 3.49858C20.4336 3.26847 20.9705 3.15341 21.5785 3.15341C22.2035 3.15341 22.7475 3.2642 23.2106 3.4858C23.6765 3.70455 24.0387 4.00852 24.2972 4.39773C24.5558 4.78693 24.685 5.23295 24.685 5.7358C24.685 6.06534 24.6197 6.39062 24.489 6.71165C24.3612 7.03267 24.1325 7.3892 23.8029 7.78125C23.4734 8.17045 23.0089 8.63778 22.4094 9.18324L21.1353 10.4318V10.4915H24.8001V12H18.5785ZM28.6332 4.79403V3.27273H35.8008V4.79403H33.1289V12H31.305V4.79403H28.6332ZM38.9553 12.1278C38.2933 12.1278 37.7209 11.9872 37.2379 11.706C36.7578 11.4219 36.3871 11.027 36.1257 10.5213C35.8643 10.0128 35.7337 9.4233 35.7337 8.75284C35.7337 8.0767 35.8643 7.4858 36.1257 6.98011C36.3871 6.47159 36.7578 6.0767 37.2379 5.79545C37.7209 5.51136 38.2933 5.36932 38.9553 5.36932C39.6172 5.36932 40.1882 5.51136 40.6683 5.79545C41.1513 6.0767 41.5234 6.47159 41.7848 6.98011C42.0462 7.4858 42.1768 8.0767 42.1768 8.75284C42.1768 9.4233 42.0462 10.0128 41.7848 10.5213C41.5234 11.027 41.1513 11.4219 40.6683 11.706C40.1882 11.9872 39.6172 12.1278 38.9553 12.1278ZM38.9638 10.7216C39.2649 10.7216 39.5163 10.6364 39.718 10.4659C39.9197 10.2926 40.0717 10.0568 40.174 9.75852C40.2791 9.46023 40.3317 9.12074 40.3317 8.74006C40.3317 8.35938 40.2791 8.01989 40.174 7.72159C40.0717 7.4233 39.9197 7.1875 39.718 7.0142C39.5163 6.84091 39.2649 6.75426 38.9638 6.75426C38.6598 6.75426 38.4041 6.84091 38.1967 7.0142C37.9922 7.1875 37.8374 7.4233 37.7322 7.72159C37.63 8.01989 37.5788 8.35938 37.5788 8.74006C37.5788 9.12074 37.63 9.46023 37.7322 9.75852C37.8374 10.0568 37.9922 10.2926 38.1967 10.4659C38.4041 10.6364 38.6598 10.7216 38.9638 10.7216ZM45.7692 12.1065C45.272 12.1065 44.8217 11.9787 44.4183 11.723C44.0178 11.4645 43.6996 11.0852 43.4638 10.5852C43.2308 10.0824 43.1143 9.46591 43.1143 8.7358C43.1143 7.9858 43.2351 7.36222 43.4766 6.86506C43.718 6.36506 44.0391 5.99148 44.4396 5.74432C44.843 5.49432 45.2848 5.36932 45.7649 5.36932C46.1314 5.36932 46.4368 5.43182 46.6811 5.55682C46.9283 5.67898 47.1271 5.83239 47.2777 6.01705C47.4311 6.19886 47.5476 6.37784 47.6271 6.55398H47.6825V3.27273H49.4936V12H47.7038V10.9517H47.6271C47.5419 11.1335 47.4212 11.3139 47.2649 11.4929C47.1115 11.669 46.9112 11.8153 46.6641 11.9318C46.4197 12.0483 46.1214 12.1065 45.7692 12.1065ZM46.3445 10.6619C46.6371 10.6619 46.8842 10.5824 47.0859 10.4233C47.2905 10.2614 47.4467 10.0355 47.5547 9.74574C47.6655 9.45597 47.7209 9.11648 47.7209 8.72727C47.7209 8.33807 47.6669 8 47.5589 7.71307C47.451 7.42614 47.2947 7.20455 47.0902 7.0483C46.8857 6.89205 46.6371 6.81392 46.3445 6.81392C46.0462 6.81392 45.7947 6.89489 45.5902 7.05682C45.3857 7.21875 45.2308 7.44318 45.1257 7.73011C45.0206 8.01705 44.968 8.34943 44.968 8.72727C44.968 9.10795 45.0206 9.4446 45.1257 9.73722C45.2337 10.027 45.3885 10.2543 45.5902 10.419C45.7947 10.581 46.0462 10.6619 46.3445 10.6619ZM52.8526 12.1236C52.435 12.1236 52.0629 12.0511 51.7362 11.9062C51.4094 11.7585 51.1509 11.5412 50.9606 11.2543C50.7731 10.9645 50.6793 10.6037 50.6793 10.1719C50.6793 9.80824 50.7461 9.50284 50.8796 9.25568C51.0131 9.00852 51.195 8.80966 51.4251 8.65909C51.6552 8.50852 51.9165 8.39489 52.2092 8.31818C52.5046 8.24148 52.8143 8.1875 53.1381 8.15625C53.5188 8.11648 53.8256 8.07955 54.0586 8.04545C54.2915 8.00852 54.4606 7.95455 54.5657 7.88352C54.6708 7.8125 54.7234 7.70739 54.7234 7.56818V7.54261C54.7234 7.27273 54.6381 7.06392 54.4677 6.91619C54.3001 6.76847 54.0614 6.6946 53.7518 6.6946C53.4251 6.6946 53.1651 6.76705 52.9719 6.91193C52.7788 7.05398 52.6509 7.23295 52.5884 7.44886L50.9094 7.3125C50.9947 6.91477 51.1623 6.57102 51.4123 6.28125C51.6623 5.98864 51.9847 5.7642 52.3796 5.60795C52.7773 5.44886 53.2376 5.36932 53.7603 5.36932C54.1239 5.36932 54.4719 5.41193 54.8043 5.49716C55.1396 5.58239 55.4364 5.71449 55.695 5.89347C55.9563 6.07244 56.1623 6.30256 56.3129 6.58381C56.4634 6.86222 56.5387 7.19602 56.5387 7.58523V12H54.8171V11.0923H54.766C54.6609 11.2969 54.5202 11.4773 54.3441 11.6335C54.168 11.7869 53.9563 11.9077 53.7092 11.9957C53.462 12.081 53.1765 12.1236 52.8526 12.1236ZM53.3725 10.8707C53.6396 10.8707 53.8754 10.8182 54.0799 10.7131C54.2844 10.6051 54.445 10.4602 54.5614 10.2784C54.6779 10.0966 54.7362 9.89062 54.7362 9.66051V8.96591C54.6793 9.00284 54.6012 9.03693 54.5018 9.06818C54.4052 9.09659 54.2958 9.12358 54.1737 9.14915C54.0515 9.17187 53.9293 9.19318 53.8072 9.21307C53.685 9.23011 53.5742 9.24574 53.4748 9.25994C53.2617 9.29119 53.0756 9.34091 52.9165 9.40909C52.7575 9.47727 52.6339 9.5696 52.5458 9.68608C52.4577 9.79972 52.4137 9.94176 52.4137 10.1122C52.4137 10.3594 52.5032 10.5483 52.6822 10.679C52.864 10.8068 53.0941 10.8707 53.3725 10.8707ZM58.8335 14.4418C58.6033 14.4418 58.3874 14.4233 58.1857 14.3864C57.9869 14.3523 57.8221 14.3097 57.6914 14.2585L58.1005 12.8991C58.4215 12.9986 58.6914 13.0241 58.9102 12.9759C59.1317 12.9304 59.3065 12.7599 59.4343 12.4645L59.5408 12.1875L57.1928 5.45455H59.1019L60.457 10.2614H60.5252L61.8931 5.45455L63.815 5.46307L61.271 12.7074C61.1488 13.0568 60.9826 13.3608 60.7724 13.6193C60.565 13.8807 60.3022 14.0824 59.984 14.2244C59.6658 14.3693 59.2823 14.4418 58.8335 14.4418Z" fill="#1EB589"/>
<path fill-rule="evenodd" clip-rule="evenodd" d="M0 10L4 6L8 10H0Z" fill="#1EB589"/>
</g>
<defs>
<clipPath id="clip0_0_878">
<rect width="66" height="15" fill="white"/>
</clipPath>
</defs>
</svg>
