<svg width="74" height="15" viewBox="0 0 74 15" fill="none" xmlns="http://www.w3.org/2000/svg">
<g clip-path="url(#clip0_0_931)">
<path d="M16.5043 3.27273V12H14.6591V5.02415H14.608L12.6094 6.27699V4.64062L14.7699 3.27273H16.5043ZM18.4464 10.4659V9.01278L22.0898 3.27273H23.3427V5.28409H22.6012L20.3043 8.91903V8.98722H25.4819V10.4659H18.4464ZM22.6353 12V10.0227L22.6694 9.37926V3.27273H24.3995V12H22.6353ZM26.5792 10.4659V9.01278L30.2227 3.27273H31.4755V5.28409H30.734L28.4371 8.91903V8.98722H33.6147V10.4659H26.5792ZM30.7681 12V10.0227L30.8022 9.37926V3.27273H32.5323V12H30.7681ZM37.3402 4.79403V3.27273H44.5078V4.79403H41.8359V12H40.0121V4.79403H37.3402ZM47.6623 12.1278C47.0004 12.1278 46.4279 11.9872 45.945 11.706C45.4648 11.4219 45.0941 11.027 44.8327 10.5213C44.5714 10.0128 44.4407 9.4233 44.4407 8.75284C44.4407 8.0767 44.5714 7.4858 44.8327 6.98011C45.0941 6.47159 45.4648 6.0767 45.945 5.79545C46.4279 5.51136 47.0004 5.36932 47.6623 5.36932C48.3242 5.36932 48.8952 5.51136 49.3754 5.79545C49.8583 6.0767 50.2305 6.47159 50.4918 6.98011C50.7532 7.4858 50.8839 8.0767 50.8839 8.75284C50.8839 9.4233 50.7532 10.0128 50.4918 10.5213C50.2305 11.027 49.8583 11.4219 49.3754 11.706C48.8952 11.9872 48.3242 12.1278 47.6623 12.1278ZM47.6708 10.7216C47.9719 10.7216 48.2234 10.6364 48.4251 10.4659C48.6268 10.2926 48.7788 10.0568 48.881 9.75852C48.9862 9.46023 49.0387 9.12074 49.0387 8.74006C49.0387 8.35938 48.9862 8.01989 48.881 7.72159C48.7788 7.4233 48.6268 7.1875 48.4251 7.0142C48.2234 6.84091 47.9719 6.75426 47.6708 6.75426C47.3668 6.75426 47.1112 6.84091 46.9038 7.0142C46.6992 7.1875 46.5444 7.4233 46.4393 7.72159C46.337 8.01989 46.2859 8.35938 46.2859 8.74006C46.2859 9.12074 46.337 9.46023 46.4393 9.75852C46.5444 10.0568 46.6992 10.2926 46.9038 10.4659C47.1112 10.6364 47.3668 10.7216 47.6708 10.7216ZM54.4762 12.1065C53.979 12.1065 53.5288 11.9787 53.1254 11.723C52.7248 11.4645 52.4066 11.0852 52.1708 10.5852C51.9379 10.0824 51.8214 9.46591 51.8214 8.7358C51.8214 7.9858 51.9421 7.36222 52.1836 6.86506C52.4251 6.36506 52.7461 5.99148 53.1467 5.74432C53.5501 5.49432 53.9918 5.36932 54.4719 5.36932C54.8384 5.36932 55.1438 5.43182 55.3881 5.55682C55.6353 5.67898 55.8342 5.83239 55.9847 6.01705C56.1381 6.19886 56.2546 6.37784 56.3342 6.55398H56.3896V3.27273H58.2006V12H56.4109V10.9517H56.3342C56.2489 11.1335 56.1282 11.3139 55.9719 11.4929C55.8185 11.669 55.6183 11.8153 55.3711 11.9318C55.1268 12.0483 54.8285 12.1065 54.4762 12.1065ZM55.0515 10.6619C55.3441 10.6619 55.5913 10.5824 55.793 10.4233C55.9975 10.2614 56.1538 10.0355 56.2617 9.74574C56.3725 9.45597 56.4279 9.11648 56.4279 8.72727C56.4279 8.33807 56.3739 8 56.266 7.71307C56.158 7.42614 56.0018 7.20455 55.7972 7.0483C55.5927 6.89205 55.3441 6.81392 55.0515 6.81392C54.7532 6.81392 54.5018 6.89489 54.2972 7.05682C54.0927 7.21875 53.9379 7.44318 53.8327 7.73011C53.7276 8.01705 53.6751 8.34943 53.6751 8.72727C53.6751 9.10795 53.7276 9.4446 53.8327 9.73722C53.9407 10.027 54.0955 10.2543 54.2972 10.419C54.5018 10.581 54.7532 10.6619 55.0515 10.6619ZM61.5597 12.1236C61.142 12.1236 60.7699 12.0511 60.4432 11.9062C60.1165 11.7585 59.858 11.5412 59.6676 11.2543C59.4801 10.9645 59.3864 10.6037 59.3864 10.1719C59.3864 9.80824 59.4531 9.50284 59.5866 9.25568C59.7202 9.00852 59.902 8.80966 60.1321 8.65909C60.3622 8.50852 60.6236 8.39489 60.9162 8.31818C61.2116 8.24148 61.5213 8.1875 61.8452 8.15625C62.2259 8.11648 62.5327 8.07955 62.7656 8.04545C62.9986 8.00852 63.1676 7.95455 63.2727 7.88352C63.3778 7.8125 63.4304 7.70739 63.4304 7.56818V7.54261C63.4304 7.27273 63.3452 7.06392 63.1747 6.91619C63.0071 6.76847 62.7685 6.6946 62.4588 6.6946C62.1321 6.6946 61.8722 6.76705 61.679 6.91193C61.4858 7.05398 61.358 7.23295 61.2955 7.44886L59.6165 7.3125C59.7017 6.91477 59.8693 6.57102 60.1193 6.28125C60.3693 5.98864 60.6918 5.7642 61.0866 5.60795C61.4844 5.44886 61.9446 5.36932 62.4673 5.36932C62.831 5.36932 63.179 5.41193 63.5114 5.49716C63.8466 5.58239 64.1435 5.71449 64.402 5.89347C64.6634 6.07244 64.8693 6.30256 65.0199 6.58381C65.1705 6.86222 65.2457 7.19602 65.2457 7.58523V12H63.5241V11.0923H63.473C63.3679 11.2969 63.2273 11.4773 63.0511 11.6335C62.875 11.7869 62.6634 11.9077 62.4162 11.9957C62.169 12.081 61.8835 12.1236 61.5597 12.1236ZM62.0795 10.8707C62.3466 10.8707 62.5824 10.8182 62.7869 10.7131C62.9915 10.6051 63.152 10.4602 63.2685 10.2784C63.3849 10.0966 63.4432 9.89062 63.4432 9.66051V8.96591C63.3864 9.00284 63.3082 9.03693 63.2088 9.06818C63.1122 9.09659 63.0028 9.12358 62.8807 9.14915C62.7585 9.17187 62.6364 9.19318 62.5142 9.21307C62.392 9.23011 62.2812 9.24574 62.1818 9.25994C61.9688 9.29119 61.7827 9.34091 61.6236 9.40909C61.4645 9.47727 61.3409 9.5696 61.2528 9.68608C61.1648 9.79972 61.1207 9.94176 61.1207 10.1122C61.1207 10.3594 61.2102 10.5483 61.3892 10.679C61.571 10.8068 61.8011 10.8707 62.0795 10.8707ZM67.5405 14.4418C67.3104 14.4418 67.0945 14.4233 66.8928 14.3864C66.6939 14.3523 66.5291 14.3097 66.3984 14.2585L66.8075 12.8991C67.1286 12.9986 67.3984 13.0241 67.6172 12.9759C67.8388 12.9304 68.0135 12.7599 68.1413 12.4645L68.2479 12.1875L65.8999 5.45455H67.8089L69.1641 10.2614H69.2322L70.6001 5.45455L72.522 5.46307L69.978 12.7074C69.8558 13.0568 69.6896 13.3608 69.4794 13.6193C69.272 13.8807 69.0092 14.0824 68.6911 14.2244C68.3729 14.3693 67.9893 14.4418 67.5405 14.4418Z" fill="#DC414C"/>
<path fill-rule="evenodd" clip-rule="evenodd" d="M0 6L4 10L8 6H0Z" fill="#DC414C"/>
</g>
<defs>
<clipPath id="clip0_0_931">
<rect width="74" height="15" fill="white"/>
</clipPath>
</defs>
</svg>
