<svg width="68" height="15" viewBox="0 0 68 15" fill="none" xmlns="http://www.w3.org/2000/svg">
<g clip-path="url(#clip0_0_893)">
<path d="M15.8651 3.12784C16.3139 3.12784 16.7457 3.20312 17.1605 3.35369C17.5781 3.50142 17.9503 3.74148 18.277 4.07386C18.6065 4.40625 18.8665 4.84659 19.0568 5.39489C19.25 5.94034 19.348 6.61222 19.3509 7.41051C19.348 8.15199 19.2628 8.81392 19.0952 9.39631C18.9304 9.97585 18.6932 10.4688 18.3835 10.875C18.0739 11.2812 17.7003 11.5909 17.2628 11.804C16.8281 12.0142 16.3409 12.1193 15.8011 12.1193C15.2188 12.1193 14.7045 12.0071 14.2585 11.7827C13.8125 11.5554 13.4531 11.2472 13.1804 10.858C12.9105 10.4659 12.7472 10.0256 12.6903 9.53693H14.5099C14.581 9.85511 14.7301 10.1023 14.9574 10.2784C15.1847 10.4517 15.4659 10.5384 15.8011 10.5384C16.3693 10.5384 16.8011 10.2912 17.0966 9.79688C17.392 9.29972 17.5412 8.61932 17.544 7.75568H17.4844C17.3537 8.01136 17.1776 8.23153 16.956 8.41619C16.7344 8.59801 16.4801 8.73864 16.1932 8.83807C15.9091 8.9375 15.6065 8.98722 15.2855 8.98722C14.7713 8.98722 14.3111 8.86648 13.9048 8.625C13.5014 8.38352 13.1832 8.05114 12.9503 7.62784C12.7173 7.2017 12.6023 6.71591 12.6051 6.17045C12.6023 5.57955 12.7372 5.0554 13.0099 4.59801C13.2827 4.13778 13.6634 3.77699 14.152 3.51562C14.6435 3.25426 15.2145 3.125 15.8651 3.12784ZM15.8778 4.5767C15.5909 4.5767 15.3352 4.64489 15.1108 4.78125C14.8892 4.91761 14.7131 5.10227 14.5824 5.33523C14.4545 5.56818 14.392 5.82955 14.3949 6.11932C14.392 6.40909 14.4531 6.66903 14.5781 6.89915C14.706 7.12926 14.8807 7.3125 15.1023 7.44886C15.3239 7.58239 15.5767 7.64915 15.8608 7.64915C16.0739 7.64915 16.2699 7.60937 16.4489 7.52983C16.6307 7.45028 16.7884 7.34091 16.9219 7.2017C17.0582 7.05966 17.1648 6.89631 17.2415 6.71165C17.3182 6.52415 17.358 6.32386 17.3608 6.1108C17.358 5.82955 17.2926 5.57244 17.1648 5.33949C17.0369 5.10653 16.8608 4.92188 16.6364 4.78551C16.4119 4.64631 16.1591 4.5767 15.8778 4.5767ZM23.7869 3.12784C24.2358 3.12784 24.6676 3.20312 25.0824 3.35369C25.5 3.50142 25.8722 3.74148 26.1989 4.07386C26.5284 4.40625 26.7884 4.84659 26.9787 5.39489C27.1719 5.94034 27.2699 6.61222 27.2727 7.41051C27.2699 8.15199 27.1847 8.81392 27.017 9.39631C26.8523 9.97585 26.6151 10.4688 26.3054 10.875C25.9957 11.2812 25.6222 11.5909 25.1847 11.804C24.75 12.0142 24.2628 12.1193 23.723 12.1193C23.1406 12.1193 22.6264 12.0071 22.1804 11.7827C21.7344 11.5554 21.375 11.2472 21.1023 10.858C20.8324 10.4659 20.669 10.0256 20.6122 9.53693H22.4318C22.5028 9.85511 22.652 10.1023 22.8793 10.2784C23.1065 10.4517 23.3878 10.5384 23.723 10.5384C24.2912 10.5384 24.723 10.2912 25.0185 9.79688C25.3139 9.29972 25.4631 8.61932 25.4659 7.75568H25.4062C25.2756 8.01136 25.0994 8.23153 24.8778 8.41619C24.6563 8.59801 24.402 8.73864 24.1151 8.83807C23.831 8.9375 23.5284 8.98722 23.2074 8.98722C22.6932 8.98722 22.233 8.86648 21.8267 8.625C21.4233 8.38352 21.1051 8.05114 20.8722 7.62784C20.6392 7.2017 20.5241 6.71591 20.527 6.17045C20.5241 5.57955 20.6591 5.0554 20.9318 4.59801C21.2045 4.13778 21.5852 3.77699 22.0739 3.51562C22.5653 3.25426 23.1364 3.125 23.7869 3.12784ZM23.7997 4.5767C23.5128 4.5767 23.2571 4.64489 23.0327 4.78125C22.8111 4.91761 22.6349 5.10227 22.5043 5.33523C22.3764 5.56818 22.3139 5.82955 22.3168 6.11932C22.3139 6.40909 22.375 6.66903 22.5 6.89915C22.6278 7.12926 22.8026 7.3125 23.0241 7.44886C23.2457 7.58239 23.4986 7.64915 23.7827 7.64915C23.9957 7.64915 24.1918 7.60937 24.3707 7.52983C24.5526 7.45028 24.7102 7.34091 24.8438 7.2017C24.9801 7.05966 25.0866 6.89631 25.1634 6.71165C25.2401 6.52415 25.2798 6.32386 25.2827 6.1108C25.2798 5.82955 25.2145 5.57244 25.0866 5.33949C24.9588 5.10653 24.7827 4.92188 24.5582 4.78551C24.3338 4.64631 24.081 4.5767 23.7997 4.5767ZM31.0472 4.79403V3.27273H38.2148V4.79403H35.543V12H33.7191V4.79403H31.0472ZM41.3693 12.1278C40.7074 12.1278 40.1349 11.9872 39.652 11.706C39.1719 11.4219 38.8011 11.027 38.5398 10.5213C38.2784 10.0128 38.1477 9.4233 38.1477 8.75284C38.1477 8.0767 38.2784 7.4858 38.5398 6.98011C38.8011 6.47159 39.1719 6.0767 39.652 5.79545C40.1349 5.51136 40.7074 5.36932 41.3693 5.36932C42.0312 5.36932 42.6023 5.51136 43.0824 5.79545C43.5653 6.0767 43.9375 6.47159 44.1989 6.98011C44.4602 7.4858 44.5909 8.0767 44.5909 8.75284C44.5909 9.4233 44.4602 10.0128 44.1989 10.5213C43.9375 11.027 43.5653 11.4219 43.0824 11.706C42.6023 11.9872 42.0312 12.1278 41.3693 12.1278ZM41.3778 10.7216C41.679 10.7216 41.9304 10.6364 42.1321 10.4659C42.3338 10.2926 42.4858 10.0568 42.5881 9.75852C42.6932 9.46023 42.7457 9.12074 42.7457 8.74006C42.7457 8.35938 42.6932 8.01989 42.5881 7.72159C42.4858 7.4233 42.3338 7.1875 42.1321 7.0142C41.9304 6.84091 41.679 6.75426 41.3778 6.75426C41.0739 6.75426 40.8182 6.84091 40.6108 7.0142C40.4063 7.1875 40.2514 7.4233 40.1463 7.72159C40.044 8.01989 39.9929 8.35938 39.9929 8.74006C39.9929 9.12074 40.044 9.46023 40.1463 9.75852C40.2514 10.0568 40.4063 10.2926 40.6108 10.4659C40.8182 10.6364 41.0739 10.7216 41.3778 10.7216ZM48.1832 12.1065C47.6861 12.1065 47.2358 11.9787 46.8324 11.723C46.4318 11.4645 46.1136 11.0852 45.8778 10.5852C45.6449 10.0824 45.5284 9.46591 45.5284 8.7358C45.5284 7.9858 45.6491 7.36222 45.8906 6.86506C46.1321 6.36506 46.4531 5.99148 46.8537 5.74432C47.2571 5.49432 47.6989 5.36932 48.179 5.36932C48.5455 5.36932 48.8509 5.43182 49.0952 5.55682C49.3423 5.67898 49.5412 5.83239 49.6918 6.01705C49.8452 6.19886 49.9616 6.37784 50.0412 6.55398H50.0966V3.27273H51.9077V12H50.1179V10.9517H50.0412C49.956 11.1335 49.8352 11.3139 49.679 11.4929C49.5256 11.669 49.3253 11.8153 49.0781 11.9318C48.8338 12.0483 48.5355 12.1065 48.1832 12.1065ZM48.7585 10.6619C49.0511 10.6619 49.2983 10.5824 49.5 10.4233C49.7045 10.2614 49.8608 10.0355 49.9688 9.74574C50.0795 9.45597 50.1349 9.11648 50.1349 8.72727C50.1349 8.33807 50.081 8 49.973 7.71307C49.8651 7.42614 49.7088 7.20455 49.5043 7.0483C49.2997 6.89205 49.0511 6.81392 48.7585 6.81392C48.4602 6.81392 48.2088 6.89489 48.0043 7.05682C47.7997 7.21875 47.6449 7.44318 47.5398 7.73011C47.4347 8.01705 47.3821 8.34943 47.3821 8.72727C47.3821 9.10795 47.4347 9.4446 47.5398 9.73722C47.6477 10.027 47.8026 10.2543 48.0043 10.419C48.2088 10.581 48.4602 10.6619 48.7585 10.6619ZM55.2667 12.1236C54.8491 12.1236 54.4769 12.0511 54.1502 11.9062C53.8235 11.7585 53.565 11.5412 53.3746 11.2543C53.1871 10.9645 53.0934 10.6037 53.0934 10.1719C53.0934 9.80824 53.1602 9.50284 53.2937 9.25568C53.4272 9.00852 53.609 8.80966 53.8391 8.65909C54.0692 8.50852 54.3306 8.39489 54.6232 8.31818C54.9187 8.24148 55.2283 8.1875 55.5522 8.15625C55.9329 8.11648 56.2397 8.07955 56.4727 8.04545C56.7056 8.00852 56.8746 7.95455 56.9798 7.88352C57.0849 7.8125 57.1374 7.70739 57.1374 7.56818V7.54261C57.1374 7.27273 57.0522 7.06392 56.8817 6.91619C56.7141 6.76847 56.4755 6.6946 56.1658 6.6946C55.8391 6.6946 55.5792 6.76705 55.386 6.91193C55.1928 7.05398 55.065 7.23295 55.0025 7.44886L53.3235 7.3125C53.4087 6.91477 53.5763 6.57102 53.8263 6.28125C54.0763 5.98864 54.3988 5.7642 54.7937 5.60795C55.1914 5.44886 55.6516 5.36932 56.1744 5.36932C56.538 5.36932 56.886 5.41193 57.2184 5.49716C57.5536 5.58239 57.8505 5.71449 58.109 5.89347C58.3704 6.07244 58.5763 6.30256 58.7269 6.58381C58.8775 6.86222 58.9528 7.19602 58.9528 7.58523V12H57.2312V11.0923H57.18C57.0749 11.2969 56.9343 11.4773 56.7582 11.6335C56.582 11.7869 56.3704 11.9077 56.1232 11.9957C55.8761 12.081 55.5906 12.1236 55.2667 12.1236ZM55.7866 10.8707C56.0536 10.8707 56.2894 10.8182 56.494 10.7131C56.6985 10.6051 56.859 10.4602 56.9755 10.2784C57.092 10.0966 57.1502 9.89062 57.1502 9.66051V8.96591C57.0934 9.00284 57.0153 9.03693 56.9158 9.06818C56.8192 9.09659 56.7099 9.12358 56.5877 9.14915C56.4656 9.17187 56.3434 9.19318 56.2212 9.21307C56.0991 9.23011 55.9883 9.24574 55.8888 9.25994C55.6758 9.29119 55.4897 9.34091 55.3306 9.40909C55.1715 9.47727 55.0479 9.5696 54.9599 9.68608C54.8718 9.79972 54.8278 9.94176 54.8278 10.1122C54.8278 10.3594 54.9173 10.5483 55.0962 10.679C55.2781 10.8068 55.5082 10.8707 55.7866 10.8707ZM61.2475 14.4418C61.0174 14.4418 60.8015 14.4233 60.5998 14.3864C60.4009 14.3523 60.2362 14.3097 60.1055 14.2585L60.5146 12.8991C60.8356 12.9986 61.1055 13.0241 61.3242 12.9759C61.5458 12.9304 61.7205 12.7599 61.8484 12.4645L61.9549 12.1875L59.6069 5.45455H61.516L62.8711 10.2614H62.9393L64.3072 5.45455L66.229 5.46307L63.685 12.7074C63.5629 13.0568 63.3967 13.3608 63.1864 13.6193C62.979 13.8807 62.7163 14.0824 62.3981 14.2244C62.0799 14.3693 61.6964 14.4418 61.2475 14.4418Z" fill="#1EB589"/>
<path fill-rule="evenodd" clip-rule="evenodd" d="M0 10L4 6L8 10H0Z" fill="#1EB589"/>
</g>
<defs>
<clipPath id="clip0_0_893">
<rect width="68" height="15" fill="white"/>
</clipPath>
</defs>
</svg>
