<svg width="82" height="15" viewBox="0 0 82 15" fill="none" xmlns="http://www.w3.org/2000/svg">
<g clip-path="url(#clip0_0_913)">
<path d="M16.5043 3.27273V12H14.6591V5.02415H14.608L12.6094 6.27699V4.64062L14.7699 3.27273H16.5043ZM22.0004 12.1918C21.2674 12.1889 20.6367 12.0085 20.1083 11.6506C19.5827 11.2926 19.1779 10.7741 18.8938 10.0952C18.6126 9.41619 18.4734 8.59943 18.4762 7.64489C18.4762 6.69318 18.6168 5.8821 18.8981 5.21165C19.1822 4.54119 19.587 4.03125 20.1126 3.68182C20.641 3.32955 21.2702 3.15341 22.0004 3.15341C22.7305 3.15341 23.3583 3.32955 23.8839 3.68182C24.4123 4.03409 24.8185 4.54545 25.1026 5.21591C25.3867 5.88352 25.5273 6.69318 25.5245 7.64489C25.5245 8.60227 25.3825 9.42045 25.0984 10.0994C24.8171 10.7784 24.4137 11.2969 23.8881 11.6548C23.3626 12.0128 22.7333 12.1918 22.0004 12.1918ZM22.0004 10.6619C22.5004 10.6619 22.8995 10.4105 23.1978 9.90767C23.4961 9.40483 23.6438 8.65057 23.641 7.64489C23.641 6.98295 23.5728 6.43182 23.4364 5.99148C23.3029 5.55114 23.1126 5.22017 22.8654 4.99858C22.6211 4.77699 22.3327 4.66619 22.0004 4.66619C21.5032 4.66619 21.1055 4.91477 20.8072 5.41193C20.5089 5.90909 20.3583 6.65341 20.3555 7.64489C20.3555 8.31534 20.4222 8.875 20.5558 9.32386C20.6921 9.76989 20.8839 10.1051 21.131 10.3295C21.3782 10.5511 21.668 10.6619 22.0004 10.6619ZM29.9979 3.12784C30.4467 3.12784 30.8786 3.20312 31.2933 3.35369C31.7109 3.50142 32.0831 3.74148 32.4098 4.07386C32.7393 4.40625 32.9993 4.84659 33.1896 5.39489C33.3828 5.94034 33.4808 6.61222 33.4837 7.41051C33.4808 8.15199 33.3956 8.81392 33.228 9.39631C33.0632 9.97585 32.826 10.4688 32.5163 10.875C32.2067 11.2812 31.8331 11.5909 31.3956 11.804C30.9609 12.0142 30.4737 12.1193 29.9339 12.1193C29.3516 12.1193 28.8374 12.0071 28.3913 11.7827C27.9453 11.5554 27.5859 11.2472 27.3132 10.858C27.0433 10.4659 26.88 10.0256 26.8232 9.53693H28.6428C28.7138 9.85511 28.8629 10.1023 29.0902 10.2784C29.3175 10.4517 29.5987 10.5384 29.9339 10.5384C30.5021 10.5384 30.9339 10.2912 31.2294 9.79688C31.5249 9.29972 31.674 8.61932 31.6768 7.75568H31.6172C31.4865 8.01136 31.3104 8.23153 31.0888 8.41619C30.8672 8.59801 30.6129 8.73864 30.326 8.83807C30.0419 8.9375 29.7393 8.98722 29.4183 8.98722C28.9041 8.98722 28.4439 8.86648 28.0376 8.625C27.6342 8.38352 27.3161 8.05114 27.0831 7.62784C26.8501 7.2017 26.7351 6.71591 26.7379 6.17045C26.7351 5.57955 26.87 5.0554 27.1428 4.59801C27.4155 4.13778 27.7962 3.77699 28.2848 3.51562C28.7763 3.25426 29.3473 3.125 29.9979 3.12784ZM30.0107 4.5767C29.7237 4.5767 29.468 4.64489 29.2436 4.78125C29.022 4.91761 28.8459 5.10227 28.7152 5.33523C28.5874 5.56818 28.5249 5.82955 28.5277 6.11932C28.5249 6.40909 28.5859 6.66903 28.7109 6.89915C28.8388 7.12926 29.0135 7.3125 29.2351 7.44886C29.4567 7.58239 29.7095 7.64915 29.9936 7.64915C30.2067 7.64915 30.4027 7.60937 30.5817 7.52983C30.7635 7.45028 30.9212 7.34091 31.0547 7.2017C31.1911 7.05966 31.2976 6.89631 31.3743 6.71165C31.451 6.52415 31.4908 6.32386 31.4936 6.1108C31.4908 5.82955 31.4254 5.57244 31.2976 5.33949C31.1697 5.10653 30.9936 4.92188 30.7692 4.78551C30.5447 4.64631 30.2919 4.5767 30.0107 4.5767ZM37.9197 3.12784C38.3686 3.12784 38.8004 3.20312 39.2152 3.35369C39.6328 3.50142 40.005 3.74148 40.3317 4.07386C40.6612 4.40625 40.9212 4.84659 41.1115 5.39489C41.3047 5.94034 41.4027 6.61222 41.4055 7.41051C41.4027 8.15199 41.3175 8.81392 41.1499 9.39631C40.9851 9.97585 40.7479 10.4688 40.4382 10.875C40.1286 11.2812 39.755 11.5909 39.3175 11.804C38.8828 12.0142 38.3956 12.1193 37.8558 12.1193C37.2734 12.1193 36.7592 12.0071 36.3132 11.7827C35.8672 11.5554 35.5078 11.2472 35.2351 10.858C34.9652 10.4659 34.8018 10.0256 34.745 9.53693H36.5646C36.6357 9.85511 36.7848 10.1023 37.0121 10.2784C37.2393 10.4517 37.5206 10.5384 37.8558 10.5384C38.424 10.5384 38.8558 10.2912 39.1513 9.79688C39.4467 9.29972 39.5959 8.61932 39.5987 7.75568H39.5391C39.4084 8.01136 39.2322 8.23153 39.0107 8.41619C38.7891 8.59801 38.5348 8.73864 38.2479 8.83807C37.9638 8.9375 37.6612 8.98722 37.3402 8.98722C36.826 8.98722 36.3658 8.86648 35.9595 8.625C35.5561 8.38352 35.2379 8.05114 35.005 7.62784C34.772 7.2017 34.657 6.71591 34.6598 6.17045C34.657 5.57955 34.7919 5.0554 35.0646 4.59801C35.3374 4.13778 35.718 3.77699 36.2067 3.51562C36.6982 3.25426 37.2692 3.125 37.9197 3.12784ZM37.9325 4.5767C37.6456 4.5767 37.3899 4.64489 37.1655 4.78125C36.9439 4.91761 36.7678 5.10227 36.6371 5.33523C36.5092 5.56818 36.4467 5.82955 36.4496 6.11932C36.4467 6.40909 36.5078 6.66903 36.6328 6.89915C36.7607 7.12926 36.9354 7.3125 37.157 7.44886C37.3786 7.58239 37.6314 7.64915 37.9155 7.64915C38.1286 7.64915 38.3246 7.60937 38.5036 7.52983C38.6854 7.45028 38.843 7.34091 38.9766 7.2017C39.1129 7.05966 39.2195 6.89631 39.2962 6.71165C39.3729 6.52415 39.4126 6.32386 39.4155 6.1108C39.4126 5.82955 39.3473 5.57244 39.2195 5.33949C39.0916 5.10653 38.9155 4.92188 38.6911 4.78551C38.4666 4.64631 38.2138 4.5767 37.9325 4.5767ZM45.18 4.79403V3.27273H52.3477V4.79403H49.6758V12H47.8519V4.79403H45.18ZM55.5021 12.1278C54.8402 12.1278 54.2678 11.9872 53.7848 11.706C53.3047 11.4219 52.9339 11.027 52.6726 10.5213C52.4112 10.0128 52.2805 9.4233 52.2805 8.75284C52.2805 8.0767 52.4112 7.4858 52.6726 6.98011C52.9339 6.47159 53.3047 6.0767 53.7848 5.79545C54.2678 5.51136 54.8402 5.36932 55.5021 5.36932C56.1641 5.36932 56.7351 5.51136 57.2152 5.79545C57.6982 6.0767 58.0703 6.47159 58.3317 6.98011C58.593 7.4858 58.7237 8.0767 58.7237 8.75284C58.7237 9.4233 58.593 10.0128 58.3317 10.5213C58.0703 11.027 57.6982 11.4219 57.2152 11.706C56.7351 11.9872 56.1641 12.1278 55.5021 12.1278ZM55.5107 10.7216C55.8118 10.7216 56.0632 10.6364 56.2649 10.4659C56.4666 10.2926 56.6186 10.0568 56.7209 9.75852C56.826 9.46023 56.8786 9.12074 56.8786 8.74006C56.8786 8.35938 56.826 8.01989 56.7209 7.72159C56.6186 7.4233 56.4666 7.1875 56.2649 7.0142C56.0632 6.84091 55.8118 6.75426 55.5107 6.75426C55.2067 6.75426 54.951 6.84091 54.7436 7.0142C54.5391 7.1875 54.3842 7.4233 54.2791 7.72159C54.1768 8.01989 54.1257 8.35938 54.1257 8.74006C54.1257 9.12074 54.1768 9.46023 54.2791 9.75852C54.3842 10.0568 54.5391 10.2926 54.7436 10.4659C54.951 10.6364 55.2067 10.7216 55.5107 10.7216ZM62.3161 12.1065C61.8189 12.1065 61.3686 11.9787 60.9652 11.723C60.5646 11.4645 60.2464 11.0852 60.0107 10.5852C59.7777 10.0824 59.6612 9.46591 59.6612 8.7358C59.6612 7.9858 59.782 7.36222 60.0234 6.86506C60.2649 6.36506 60.5859 5.99148 60.9865 5.74432C61.3899 5.49432 61.8317 5.36932 62.3118 5.36932C62.6783 5.36932 62.9837 5.43182 63.228 5.55682C63.4751 5.67898 63.674 5.83239 63.8246 6.01705C63.978 6.19886 64.0945 6.37784 64.174 6.55398H64.2294V3.27273H66.0405V12H64.2507V10.9517H64.174C64.0888 11.1335 63.968 11.3139 63.8118 11.4929C63.6584 11.669 63.4581 11.8153 63.2109 11.9318C62.9666 12.0483 62.6683 12.1065 62.3161 12.1065ZM62.8913 10.6619C63.1839 10.6619 63.4311 10.5824 63.6328 10.4233C63.8374 10.2614 63.9936 10.0355 64.1016 9.74574C64.2124 9.45597 64.2678 9.11648 64.2678 8.72727C64.2678 8.33807 64.2138 8 64.1058 7.71307C63.9979 7.42614 63.8416 7.20455 63.6371 7.0483C63.4325 6.89205 63.1839 6.81392 62.8913 6.81392C62.593 6.81392 62.3416 6.89489 62.1371 7.05682C61.9325 7.21875 61.7777 7.44318 61.6726 7.73011C61.5675 8.01705 61.5149 8.34943 61.5149 8.72727C61.5149 9.10795 61.5675 9.4446 61.6726 9.73722C61.7805 10.027 61.9354 10.2543 62.1371 10.419C62.3416 10.581 62.593 10.6619 62.8913 10.6619ZM69.3995 12.1236C68.9819 12.1236 68.6097 12.0511 68.283 11.9062C67.9563 11.7585 67.6978 11.5412 67.5075 11.2543C67.32 10.9645 67.2262 10.6037 67.2262 10.1719C67.2262 9.80824 67.293 9.50284 67.4265 9.25568C67.56 9.00852 67.7418 8.80966 67.9719 8.65909C68.2021 8.50852 68.4634 8.39489 68.756 8.31818C69.0515 8.24148 69.3612 8.1875 69.685 8.15625C70.0657 8.11648 70.3725 8.07955 70.6055 8.04545C70.8384 8.00852 71.0075 7.95455 71.1126 7.88352C71.2177 7.8125 71.2702 7.70739 71.2702 7.56818V7.54261C71.2702 7.27273 71.185 7.06392 71.0146 6.91619C70.8469 6.76847 70.6083 6.6946 70.2987 6.6946C69.9719 6.6946 69.712 6.76705 69.5188 6.91193C69.3256 7.05398 69.1978 7.23295 69.1353 7.44886L67.4563 7.3125C67.5415 6.91477 67.7092 6.57102 67.9592 6.28125C68.2092 5.98864 68.5316 5.7642 68.9265 5.60795C69.3242 5.44886 69.7844 5.36932 70.3072 5.36932C70.6708 5.36932 71.0188 5.41193 71.3512 5.49716C71.6864 5.58239 71.9833 5.71449 72.2418 5.89347C72.5032 6.07244 72.7092 6.30256 72.8597 6.58381C73.0103 6.86222 73.0856 7.19602 73.0856 7.58523V12H71.364V11.0923H71.3129C71.2077 11.2969 71.0671 11.4773 70.891 11.6335C70.7148 11.7869 70.5032 11.9077 70.256 11.9957C70.0089 12.081 69.7234 12.1236 69.3995 12.1236ZM69.9194 10.8707C70.1864 10.8707 70.4222 10.8182 70.6268 10.7131C70.8313 10.6051 70.9918 10.4602 71.1083 10.2784C71.2248 10.0966 71.283 9.89062 71.283 9.66051V8.96591C71.2262 9.00284 71.1481 9.03693 71.0487 9.06818C70.9521 9.09659 70.8427 9.12358 70.7205 9.14915C70.5984 9.17187 70.4762 9.19318 70.354 9.21307C70.2319 9.23011 70.1211 9.24574 70.0217 9.25994C69.8086 9.29119 69.6225 9.34091 69.4634 9.40909C69.3043 9.47727 69.1808 9.5696 69.0927 9.68608C69.0046 9.79972 68.9606 9.94176 68.9606 10.1122C68.9606 10.3594 69.0501 10.5483 69.229 10.679C69.4109 10.8068 69.641 10.8707 69.9194 10.8707ZM75.3803 14.4418C75.1502 14.4418 74.9343 14.4233 74.7326 14.3864C74.5337 14.3523 74.369 14.3097 74.2383 14.2585L74.6474 12.8991C74.9684 12.9986 75.2383 13.0241 75.457 12.9759C75.6786 12.9304 75.8533 12.7599 75.9812 12.4645L76.0877 12.1875L73.7397 5.45455H75.6488L77.0039 10.2614H77.0721L78.44 5.45455L80.3619 5.46307L77.8178 12.7074C77.6957 13.0568 77.5295 13.3608 77.3192 13.6193C77.1119 13.8807 76.8491 14.0824 76.5309 14.2244C76.2127 14.3693 75.8292 14.4418 75.3803 14.4418Z" fill="#1EB589"/>
<path fill-rule="evenodd" clip-rule="evenodd" d="M0 10L4 6L8 10H0Z" fill="#1EB589"/>
</g>
<defs>
<clipPath id="clip0_0_913">
<rect width="82" height="15" fill="white"/>
</clipPath>
</defs>
</svg>
